<svg preserveAspectRatio="none" width="100%" height="100%" overflow="visible" style="display: block;" viewBox="0 0 850 483" fill="none" xmlns="http://www.w3.org/2000/svg">
<g id="&#208;&#187;&#208;&#190;&#208;&#179;&#208;&#190;">
<g id="&#208;&#187;&#208;&#190;&#208;&#179;&#208;&#190;_2">
<path fill-rule="evenodd" clip-rule="evenodd" d="M486.16 0.00996879C495.515 -0.054654 504.422 0.203837 506.024 0.526951C507.626 0.914688 510.894 1.43167 513.393 1.81941C515.892 2.14252 520.89 2.98262 524.607 3.69347C528.324 4.33969 532.489 5.17979 533.898 5.56753C535.308 5.95526 537.935 6.60149 539.666 7.05385C541.46 7.44159 544.279 8.6048 545.945 9.50952C548.188 10.7373 549.342 11.9006 550.239 13.9039C550.944 15.4548 551.52 17.135 551.52 17.652C551.52 18.169 551.905 19.7199 552.417 21.0124C552.93 22.3694 553.571 25.0836 553.955 27.0223C554.34 28.961 555.109 33.3553 555.621 36.7157C556.198 40.0761 556.903 44.9228 557.223 47.3785C557.544 49.8341 558.184 57.4596 558.569 64.1804C559.21 74.4554 559.146 78.9144 558.313 91.3219C557.736 99.529 556.711 109.093 556.006 112.647C555.301 116.202 554.404 120.531 554.019 122.341C553.635 124.086 552.738 127.317 552.033 129.449C551.392 131.582 549.79 135.782 548.509 138.82C547.227 141.857 545.112 146.51 543.831 149.159C542.549 151.809 540.691 155.428 539.666 157.237C538.64 158.982 536.334 162.472 534.603 164.992C532.873 167.512 529.028 172.165 526.145 175.332C523.261 178.498 515.764 186.382 509.42 192.78C503.141 199.177 495.195 206.738 491.734 209.582C488.274 212.425 483.789 216.109 481.802 217.789C479.816 219.469 473.985 223.669 468.858 227.159C463.732 230.584 456.107 235.172 451.877 237.305C447.648 239.502 441.817 242.345 438.869 243.638C435.986 244.995 433.487 246.093 433.294 246.093C433.102 246.093 432.013 246.481 430.923 246.998C429.77 247.451 426.182 248.485 423.042 249.325C419.902 250.1 416.121 251.069 414.711 251.328C413.302 251.651 409.008 252.362 405.1 252.879C401.191 253.396 396 253.848 393.565 253.848C391.13 253.848 385.94 253.396 382.031 252.879C378.122 252.362 373.829 251.651 372.419 251.328C371.009 251.069 367.421 250.165 364.409 249.389C361.398 248.549 357.104 247.063 354.797 245.964C352.491 244.93 348.197 242.668 345.186 240.924C342.174 239.243 338.585 237.499 337.176 237.046C334.805 236.271 334.292 236.4 330.447 238.209C328.141 239.308 325.001 241.182 323.399 242.41C321.797 243.638 317.76 246.675 314.428 249.195C311.096 251.716 307.699 254.365 306.93 255.076C305.713 256.175 304.624 256.433 301.163 256.433C297.254 256.368 296.678 256.239 295.396 254.624C294.563 253.654 293.602 252.168 293.218 251.263C292.833 250.359 292.705 248.937 292.897 248.032C293.089 247.127 294.691 244.543 296.486 242.216C298.28 239.89 300.523 236.852 301.42 235.431C302.381 234.009 305.072 230.067 307.443 226.707C309.75 223.346 312.441 219.275 315.004 214.751L310.839 207.643C308.596 203.701 306.033 199.242 305.2 197.626C304.367 196.011 302.445 191.552 300.971 187.61C299.497 183.668 297.831 179.015 297.319 177.27C296.742 175.461 295.973 173.005 295.524 171.777C295.076 170.549 294.371 167.06 293.986 164.023C293.538 160.985 292.961 156.591 292.577 154.135C292.256 151.744 292 145.993 292 141.405C292 136.816 292.32 131.453 292.641 129.579C293.025 127.769 293.602 124.603 293.986 122.664C294.371 120.725 295.396 117.042 296.229 114.586C297.062 112.13 298.985 107.025 300.523 103.277C301.996 99.529 304.111 95.0054 305.072 93.2606C306.097 91.4512 308.725 87.2507 310.903 83.8903C313.082 80.53 317.055 75.1016 319.682 71.9351C322.309 68.7686 327.5 63.211 331.152 59.6568C334.805 56.1025 339.419 51.9021 341.341 50.4157C343.263 48.8648 346.467 46.3445 348.39 44.7289C350.312 43.1134 354.221 40.27 357.04 38.3313C359.86 36.3926 366.204 32.5152 371.138 29.6072C376.072 26.7638 382.736 23.0803 385.876 21.5294C389.016 19.9784 394.783 17.4581 398.692 15.8425C402.6 14.2916 408.496 12.0944 411.828 10.9958C415.16 9.89725 421.376 8.08781 425.605 6.92461C429.834 5.82602 435.153 4.53356 437.459 4.0812C439.766 3.62884 443.611 2.91799 446.11 2.53026C448.609 2.14252 452.774 1.69016 455.402 1.43167C458.029 1.2378 462.194 0.785442 464.693 0.526951C467.192 0.26846 476.804 0.00996879 486.16 0.00996879ZM448.033 17.2642C445.213 17.5874 441.881 18.2336 440.663 18.5567C439.446 18.9444 436.819 20.1077 434.896 21.1416C432.974 22.1756 428.745 24.0496 425.605 25.2775C422.465 26.5053 417.211 28.7671 414.071 30.3827C410.931 31.9336 405.42 35.1001 401.896 37.3619C398.371 39.6237 393.629 43.0487 391.323 44.8582C389.016 46.7322 384.979 50.4803 382.287 53.3238C379.596 56.1025 376.008 60.2384 374.278 62.5648C372.547 64.8912 369.536 69.221 367.549 72.2582C365.627 75.2955 362.679 80.53 361.013 83.8903C359.411 87.2507 357.489 91.5158 356.848 93.2606C356.143 95.0054 354.541 99.9814 353.324 104.247C352.042 108.512 350.44 115.039 349.671 118.787C348.902 122.535 348.005 127.898 347.621 130.742C347.236 133.585 346.852 143.02 346.659 151.744C346.531 160.468 346.531 168.805 346.724 170.356C347.044 172.617 347.3 173.07 348.454 172.876C349.351 172.811 350.184 171.842 350.953 169.839C351.594 168.223 353.196 164.023 354.477 160.468C355.759 156.914 358.13 150.646 359.732 146.574C361.334 142.503 364.089 136.106 365.819 132.357C367.549 128.609 370.625 122.405 372.547 118.464C374.534 114.522 377.161 109.739 378.443 107.801C379.724 105.862 382.351 101.92 384.274 99.0767C386.132 96.2333 389.464 91.6451 391.579 88.8016C393.758 86.0229 398.628 79.8837 402.408 75.2309C406.253 70.578 413.302 62.5648 418.108 57.4596C422.914 52.3544 430.475 44.9874 434.896 41.11C439.318 37.1681 447.584 30.4473 453.223 26.1176C458.926 21.8525 464.116 17.9751 464.757 17.652C465.398 17.2642 465.718 16.6826 465.462 16.1657C465.206 15.7779 464.373 15.4548 463.604 15.5194C462.771 15.5841 460.143 15.8425 457.644 16.101C455.145 16.3595 450.852 16.8765 448.033 17.2642ZM497.245 17.3289C496.412 17.3289 492.119 19.2676 487.633 21.594C483.084 23.9204 476.676 27.4746 473.344 29.4779C470.012 31.4813 463.796 35.8756 459.567 39.3006C455.402 42.661 447.328 49.9634 441.625 55.5209C435.986 61.0785 428.488 68.6394 424.964 72.3229C421.44 76.0063 415.609 82.5333 412.02 86.7984C408.432 91.0635 404.202 96.3625 402.6 98.6243C400.999 100.821 397.538 105.927 394.975 109.869C392.348 113.875 389.144 119.045 387.798 121.372C386.388 123.698 382.928 130.483 380.109 136.558C377.225 142.632 373.957 149.87 372.868 152.714C371.778 155.557 369.856 160.791 368.574 164.346C367.293 167.9 365.947 171.39 365.563 172.1C365.178 172.811 365.05 173.781 365.306 174.233C365.499 174.621 366.075 175.008 366.524 175.008C366.908 175.008 369.023 173.328 371.138 171.26C373.252 169.257 383.056 159.887 392.86 150.452C402.729 141.017 416.57 127.769 423.618 121.048C430.667 114.328 437.908 107.348 439.702 105.539C441.496 103.794 448.545 96.9441 455.402 90.3526C462.258 83.7611 473.92 72.5167 481.354 65.3436C488.787 58.2351 501.795 45.4398 510.317 36.9742C519.929 27.3454 525.825 21.0124 525.889 20.2369C525.889 19.2029 525.312 18.8152 523.197 18.4275C521.659 18.1043 517.558 17.5874 514.034 17.3289C510.51 17.0058 506.024 16.5534 504.102 16.3595C502.051 16.101 500.193 16.2303 499.616 16.618C499.104 17.0058 498.014 17.3289 497.245 17.3289ZM527.491 41.11C526.081 42.3379 519.16 48.9294 512.112 55.7148C505.063 62.5648 491.927 75.2955 482.956 83.9549C474.049 92.6144 464.245 102.114 461.169 104.957C458.157 107.865 450.532 115.297 444.188 121.436C437.844 127.64 425.413 139.66 416.634 148.19C407.855 156.72 396.577 167.577 391.643 172.359C386.709 177.141 382.095 181.6 381.39 182.246C380.237 183.28 380.237 183.539 381.07 184.314C381.903 185.154 382.544 185.025 385.876 183.733C387.99 182.892 393.181 180.954 397.41 179.467C401.639 178.046 409.841 174.879 415.673 172.617C421.504 170.291 429.706 166.672 433.935 164.604C438.164 162.536 443.611 159.757 446.11 158.336C448.609 156.979 452.326 154.717 454.44 153.36C456.555 152.003 461.041 148.707 464.373 145.993C467.705 143.343 474.625 137.333 479.752 132.745C484.878 128.157 492.632 120.725 496.989 116.266C501.346 111.807 507.754 104.763 511.086 100.692C514.483 96.621 518.584 91.5158 520.186 89.3833C521.723 87.2507 524.479 83.1795 526.273 80.3361C528.067 77.4927 531.271 71.9997 533.258 68.0577C535.308 64.1158 538.128 58.7521 539.473 56.1025C541.588 51.9021 541.908 50.6742 541.908 46.7322C541.908 44.2766 541.588 40.4638 541.203 38.3313C540.819 36.1987 540.306 33.7431 540.114 32.903C539.858 32.0629 539.345 31.2228 538.961 31.0935C538.576 30.9643 536.398 32.6445 534.155 34.9063C531.912 37.1034 528.9 39.9468 527.491 41.11ZM338.585 73.4214C334.42 77.6219 329.358 83.1795 327.308 85.829C325.321 88.4785 321.925 93.4545 319.81 96.8149C317.696 100.175 314.94 105.733 313.595 109.093C312.313 112.454 310.647 117.3 309.942 119.756C309.237 122.212 308.212 127.64 307.699 131.711C307.187 135.782 306.738 141.146 306.738 143.666C306.738 146.187 307.187 151.68 307.699 155.945C308.148 160.21 309.43 166.607 310.519 170.162C311.544 173.716 313.146 178.563 314.043 181.018C314.94 183.409 317.183 188.191 318.977 191.681C320.836 195.106 323.335 199.565 324.616 201.504C326.41 204.218 327.308 205.058 328.525 205.058C329.743 205.058 330.447 204.412 331.409 202.473C332.562 200.082 332.69 198.725 332.562 185.994C332.498 178.369 332.049 168.934 331.665 164.992C331.216 160.533 331.088 154.265 331.345 148.19C331.601 142.891 331.985 136.493 332.306 133.973C332.626 131.453 333.459 125.831 334.228 121.372C334.997 116.913 336.407 110.515 337.304 107.155C338.201 103.794 340.059 97.5257 341.469 93.2606C342.879 88.9955 345.25 82.8564 346.724 79.6898C348.197 76.5233 350.184 72.4521 351.209 70.6427C352.234 68.8978 354.733 64.8912 356.848 61.7893C358.899 58.6228 360.372 55.9733 360.116 55.7794C359.796 55.5856 359.347 55.4563 358.963 55.4563C358.642 55.4563 355.566 57.7827 352.234 60.6908C348.902 63.5342 342.751 69.2856 338.585 73.4214ZM532.297 97.7842C532.297 97.9781 530.566 100.369 528.388 103.148C526.209 105.862 520.25 112.712 515.059 118.334C509.933 123.956 500.834 133.133 494.81 138.755C488.787 144.377 481.738 150.775 479.111 152.972C476.484 155.169 473.28 157.754 472.062 158.724C470.845 159.757 467.961 161.89 465.654 163.506C463.347 165.121 458.734 168.029 455.402 169.968C452.07 171.907 447.2 174.556 444.7 175.849C442.137 177.141 439.51 178.498 438.933 178.821C438.293 179.144 436.178 180.049 434.256 180.824C432.333 181.6 427.271 183.733 423.042 185.477C418.812 187.222 409.329 190.841 401.896 193.555C394.462 196.269 384.146 199.888 378.827 201.568C370.881 204.024 369.215 204.735 369.215 205.769C369.215 206.932 370.112 207.061 381.07 207.772C387.606 208.16 398.435 208.548 405.1 208.548C413.622 208.612 418.684 208.289 421.952 207.643C424.451 207.126 427.207 206.415 428.04 206.092C428.809 205.769 430.603 205.187 432.013 204.864C433.423 204.476 439.446 202.602 445.469 200.664C451.493 198.725 459.823 195.752 464.052 194.137C468.282 192.457 475.202 189.29 479.431 187.222C483.661 185.09 488.595 182.569 490.325 181.6C492.119 180.631 495.387 178.692 497.694 177.27C500.001 175.849 504.743 172.424 508.267 169.58C511.791 166.737 516.341 162.665 518.455 160.533C520.506 158.336 523.39 154.975 524.927 153.037C526.401 151.098 528.516 147.673 529.669 145.411C530.759 143.214 532.296 139.724 533.001 137.656C533.77 135.653 534.603 133.714 534.924 133.327C535.18 132.939 536.013 130.806 536.782 128.48C537.487 126.154 538.833 121.501 539.73 118.14C540.627 114.78 541.908 108.382 542.613 103.923C543.254 99.4644 543.831 92.8729 543.831 89.1894C543.831 84.3427 543.639 82.5979 542.998 82.5979C542.613 82.5979 539.986 85.9583 537.231 90.0295C534.539 94.1007 532.297 97.5904 532.297 97.7842ZM450.596 214.751C446.046 216.302 439.51 218.306 436.178 219.275C432.846 220.18 428.937 221.214 427.527 221.601C426.118 221.925 422.978 222.506 420.479 222.894C417.531 223.411 410.162 223.476 398.692 223.217C389.208 223.023 376.328 222.506 370.176 222.054C359.668 221.343 358.706 221.343 354.862 222.571C352.619 223.217 350.568 224.057 350.248 224.445C349.927 224.833 349.863 225.608 350.12 226.254C350.44 226.965 353.067 228.71 356.079 230.196C359.091 231.747 364.409 233.815 367.934 234.914C371.458 235.948 375.687 237.176 377.417 237.563C379.148 238.016 385.491 238.339 392.156 238.339C398.564 238.339 405.548 238.016 407.663 237.628C409.777 237.24 413.366 236.465 415.673 235.948C417.979 235.366 422.016 234.203 424.644 233.298C427.271 232.458 432.589 230.261 436.498 228.516C440.407 226.771 444.508 224.833 445.726 224.251C446.879 223.605 451.813 220.632 456.619 217.53C461.425 214.493 465.334 211.585 465.334 211.133C465.334 210.616 464.885 210.163 464.373 210.099C463.86 210.034 462.386 210.357 461.169 210.939C459.951 211.456 455.145 213.2 450.596 214.751Z" fill="white"/>
<path d="M438.883 277V159.906H471.171V277H438.883ZM396.981 234.788V202.199H512.994V234.788H396.981Z" fill="var(--fill-0, #FF3B30)"/>
</g>
<g id="&#208;&#187;&#208;&#190;&#208;&#179;&#208;&#190;_3">
<path d="M74.8098 322.298V383.145H58.0412V329.6L65.5749 337.226H19.7247L27.2584 329.6V383.145H10.4898V322.298H74.8098Z" fill="white"/>
<path d="M119.493 384.443C112.31 384.443 105.992 383.118 100.537 380.467C95.1368 377.817 90.9244 374.112 87.9001 369.353C84.9299 364.593 83.4447 359.049 83.4447 352.721C83.4447 346.393 84.9299 340.85 87.9001 336.09C90.9244 331.33 95.1368 327.626 100.537 324.975C105.992 322.325 112.31 321 119.493 321C126.73 321 133.048 322.325 138.449 324.975C143.849 327.626 148.062 331.33 151.086 336.09C154.11 340.85 155.623 346.393 155.623 352.721C155.623 359.049 154.11 364.593 151.086 369.353C148.062 374.112 143.849 377.817 138.449 380.467C133.048 383.118 126.73 384.443 119.493 384.443ZM119.493 369.434C123.435 369.434 126.838 368.758 129.7 367.406C132.562 366.053 134.75 364.133 136.262 361.646C137.828 359.158 138.611 356.183 138.611 352.721C138.611 349.26 137.828 346.285 136.262 343.797C134.75 341.309 132.562 339.389 129.7 338.037C126.838 336.685 123.435 336.009 119.493 336.009C115.605 336.009 112.229 336.685 109.367 338.037C106.505 339.389 104.291 341.309 102.725 343.797C101.158 346.285 100.375 349.26 100.375 352.721C100.375 356.183 101.158 359.158 102.725 361.646C104.291 364.133 106.505 366.053 109.367 367.406C112.229 368.758 115.605 369.434 119.493 369.434Z" fill="white"/>
<path d="M158.089 395.395V368.298H171.213L176.559 368.46H218.683L222.896 368.298H240.555V395.395H224.84V383.145H173.805V395.395H158.089ZM170.727 322.298H230.105V378.439H213.256V329.356L220.87 336.982H179.637L186.604 331.384C187.036 333.872 187.279 336.279 187.333 338.605C187.441 340.931 187.495 343.148 187.495 345.257C187.495 351.586 186.928 356.913 185.794 361.24C184.714 365.567 183.067 368.839 180.853 371.056C178.692 373.274 175.965 374.383 172.671 374.383L165.623 368.541C167.783 365.999 169.376 362.538 170.403 358.157C171.429 353.722 171.942 348.259 171.942 341.769C171.942 338.794 171.834 335.684 171.618 332.439C171.402 329.194 171.105 325.814 170.727 322.298Z" fill="white"/>
<path d="M280.401 384.443C273.218 384.443 266.9 383.118 261.445 380.467C256.044 377.817 251.832 374.112 248.808 369.353C245.838 364.593 244.352 359.049 244.352 352.721C244.352 346.393 245.838 340.85 248.808 336.09C251.832 331.33 256.044 327.626 261.445 324.975C266.9 322.325 273.218 321 280.401 321C287.637 321 293.956 322.325 299.357 324.975C304.757 327.626 308.969 331.33 311.994 336.09C315.018 340.85 316.53 346.393 316.53 352.721C316.53 359.049 315.018 364.593 311.994 369.353C308.969 374.112 304.757 377.817 299.357 380.467C293.956 383.118 287.637 384.443 280.401 384.443ZM280.401 369.434C284.343 369.434 287.746 368.758 290.608 367.406C293.47 366.053 295.657 364.133 297.169 361.646C298.736 359.158 299.519 356.183 299.519 352.721C299.519 349.26 298.736 346.285 297.169 343.797C295.657 341.309 293.47 339.389 290.608 338.037C287.746 336.685 284.343 336.009 280.401 336.009C276.512 336.009 273.137 336.685 270.275 338.037C267.413 339.389 265.198 341.309 263.632 343.797C262.066 346.285 261.283 349.26 261.283 352.721C261.283 356.183 262.066 359.158 263.632 361.646C265.198 364.133 267.413 366.053 270.275 367.406C273.137 368.758 276.512 369.434 280.401 369.434Z" fill="white"/>
<path d="M359.29 322.298C364.366 322.298 368.74 323.163 372.413 324.894C376.139 326.625 378.974 329.086 380.919 332.277C382.863 335.414 383.835 339.092 383.835 343.31C383.835 347.475 382.863 351.153 380.919 354.344C378.974 357.481 376.139 359.915 372.413 361.646C368.74 363.376 364.366 364.242 359.29 364.242H332.962V350.774H358.236C360.937 350.774 363.043 350.125 364.555 348.827C366.067 347.475 366.823 345.636 366.823 343.31C366.823 340.931 366.067 339.092 364.555 337.794C363.043 336.442 360.937 335.765 358.236 335.765H334.42L341.954 327.977V383.145H325.185V322.298H359.29Z" fill="white"/>
<path d="M424.537 384.443C417.355 384.443 411.036 383.118 405.582 380.467C400.181 377.817 395.969 374.112 392.944 369.353C389.974 364.593 388.489 359.049 388.489 352.721C388.489 346.393 389.974 340.85 392.944 336.09C395.969 331.33 400.181 327.626 405.582 324.975C411.036 322.325 417.355 321 424.537 321C431.774 321 438.093 322.325 443.493 324.975C448.894 327.626 453.106 331.33 456.13 336.09C459.155 340.85 460.667 346.393 460.667 352.721C460.667 359.049 459.155 364.593 456.13 369.353C453.106 374.112 448.894 377.817 443.493 380.467C438.093 383.118 431.774 384.443 424.537 384.443ZM424.537 369.434C428.48 369.434 431.882 368.758 434.744 367.406C437.607 366.053 439.794 364.133 441.306 361.646C442.872 359.158 443.655 356.183 443.655 352.721C443.655 349.26 442.872 346.285 441.306 343.797C439.794 341.309 437.607 339.389 434.744 338.037C431.882 336.685 428.48 336.009 424.537 336.009C420.649 336.009 417.274 336.685 414.411 338.037C411.549 339.389 409.335 341.309 407.769 343.797C406.203 346.285 405.42 349.26 405.42 352.721C405.42 356.183 406.203 359.158 407.769 361.646C409.335 364.133 411.549 366.053 414.411 367.406C417.274 368.758 420.649 369.434 424.537 369.434Z" fill="white"/>
<path d="M459.061 383.145L483.039 343.878L495.272 354.101L478.098 383.145H459.061ZM553.354 383.145L536.261 354.101L548.494 343.878L572.391 383.145H553.354ZM524.029 367.811L519.412 366.189L553.84 322.298H571.581L521.923 383.145H509.61L459.952 322.298H477.612L512.121 366.189L507.423 367.811V322.298H524.029V367.811Z" fill="white"/>
<path d="M578.097 322.298H594.865V383.145H578.097V322.298ZM625.891 322.298H642.741V383.145H625.891V322.298ZM587.494 344.771H632.858V359.698H587.494V344.771Z" fill="white"/>
<path d="M654.121 383.145V322.298H670.646V374.302L666.029 373.247L700.457 322.298H722.41V383.145H705.803V330.168L710.502 331.222L675.426 383.145H654.121Z" fill="white"/>
<path d="M733.783 383.145V322.298H750.471V369.758L746.015 366.27L780.444 322.298H798.184L748.932 383.145H733.783ZM762.784 354.101L775.097 343.878L798.994 383.145H779.958L762.784 354.101Z" fill="white"/>
<path d="M817.717 377.141V331.709H829.706V377.141H817.717ZM801.029 360.429V348.422H846.393V360.429H801.029Z" fill="white"/>
<path d="M13.6466 444.293H23.5714V475.784H13.6466V444.293ZM0 439.944H37.218V448.737H0V439.944Z" fill="white"/>
<path d="M42.7168 468.903V460.923H67.3857V468.903H42.7168ZM61.7553 439.944L78.0262 475.784H67.4811L53.8345 444.149H56.6975L43.0031 475.784H32.458L48.729 439.944H61.7553Z" fill="white"/>
<path d="M81.4155 475.784V439.944H91.2449V467.899L88.6205 465.845L108.9 439.944H119.349L90.3383 475.784H81.4155ZM98.4976 458.677L105.75 452.655L119.826 475.784H108.613L98.4976 458.677Z" fill="white"/>
<path d="M134.147 444.293H144.071V475.784H134.147V444.293ZM120.5 439.944H157.718V448.737H120.5V439.944Z" fill="white"/>
<path d="M161.982 475.784V439.944H171.716V470.575L168.996 469.954L189.275 439.944H202.206V475.784H192.424V444.579L195.192 445.201L174.531 475.784H161.982Z" fill="white"/>
<path d="M223.267 464.984C218.178 464.984 214.281 463.662 211.577 461.018C208.905 458.342 207.569 454.487 207.569 449.454V439.944H217.446V448.641C217.446 451.158 218.13 453.054 219.498 454.328C220.866 455.602 222.918 456.239 225.653 456.239C227.244 456.239 228.914 456.064 230.663 455.714C232.413 455.331 234.162 454.79 235.912 454.089L236.485 462.022C234.576 462.977 232.492 463.71 230.234 464.22C227.975 464.73 225.653 464.984 223.267 464.984ZM234.624 475.784V439.944H244.549V475.784H234.624Z" fill="white"/>
<path d="M281.754 454.28V461.448H255.558V454.28H281.754ZM262.286 457.864L259.948 472.248L255.94 467.756H283.329V475.784H250.071L252.791 457.864L250.071 439.944H283.09V447.972H255.94L259.948 443.48L262.286 457.864Z" fill="white"/>
<path d="M328.24 460.779C327.89 463.933 326.808 466.705 324.995 469.094C323.182 471.452 320.796 473.283 317.838 474.59C314.911 475.896 311.539 476.549 307.722 476.549C303.555 476.549 299.913 475.768 296.795 474.207C293.678 472.646 291.244 470.464 289.495 467.66C287.777 464.857 286.918 461.592 286.918 457.864C286.918 454.137 287.777 450.871 289.495 448.068C291.244 445.264 293.678 443.082 296.795 441.521C299.913 439.96 303.555 439.18 307.722 439.18C311.539 439.18 314.911 439.833 317.838 441.139C320.796 442.445 323.182 444.293 324.995 446.682C326.808 449.04 327.89 451.795 328.24 454.949H318.315C317.997 453.42 317.377 452.13 316.454 451.078C315.532 449.995 314.323 449.167 312.828 448.594C311.365 448.02 309.663 447.733 307.722 447.733C305.496 447.733 303.571 448.148 301.949 448.976C300.326 449.772 299.086 450.935 298.227 452.464C297.368 453.962 296.939 455.762 296.939 457.864C296.939 459.967 297.368 461.783 298.227 463.312C299.086 464.809 300.326 465.972 301.949 466.8C303.571 467.597 305.496 467.995 307.722 467.995C309.663 467.995 311.365 467.724 312.828 467.183C314.323 466.641 315.532 465.829 316.454 464.745C317.377 463.662 317.997 462.34 318.315 460.779H328.24Z" fill="white"/>
<path d="M333.04 475.784V439.944H342.869V467.899L340.245 465.845L360.524 439.944H370.973L341.962 475.784H333.04ZM350.122 458.677L357.375 452.655L371.451 475.784H360.237L350.122 458.677Z" fill="white"/>
<path d="M381.524 468.903V460.923H406.193V468.903H381.524ZM400.563 439.944L416.834 475.784H406.288L392.642 444.149H395.505L381.81 475.784H371.265L387.536 439.944H400.563Z" fill="white"/>
<path d="M447.707 455.857V462.882H432.772L432.724 462.691C429.989 462.691 427.587 462.229 425.519 461.305C423.483 460.381 421.893 459.075 420.748 457.386C419.634 455.698 419.078 453.723 419.078 451.461C419.078 449.135 419.634 447.128 420.748 445.44C421.893 443.719 423.483 442.381 425.519 441.426C427.587 440.438 429.989 439.944 432.724 439.944H454.578V475.784H444.653V442.572L449.091 447.017H434.156C432.533 447.017 431.261 447.415 430.338 448.211C429.448 448.976 429.002 450.059 429.002 451.461C429.002 452.831 429.448 453.914 430.338 454.71C431.261 455.475 432.533 455.857 434.156 455.857H447.707ZM441.79 459.011L429.575 475.784H418.123L430.72 459.011H441.79Z" fill="white"/>
<path d="M525.36 439.944V475.784H515.96V443.48L518.06 443.719L504.222 475.784H494.202L480.317 443.815L482.464 443.576V475.784H473.064V439.944H488.333L501.168 470.719H497.351L510.091 439.944H525.36Z" fill="white"/>
<path d="M562.641 454.28V461.448H536.446V454.28H562.641ZM543.173 457.864L540.835 472.248L536.827 467.756H564.216V475.784H530.958L533.678 457.864L530.958 439.944H563.977V447.972H536.827L540.835 443.48L543.173 457.864Z" fill="white"/>
<path d="M567.366 483V467.039H575.096L578.245 467.135H603.057L605.538 467.039H615.94V483H606.683V475.784H576.623V483H567.366ZM574.81 439.944H609.785V473.013H599.86V444.102L604.345 448.594H580.058L584.162 445.296C584.416 446.762 584.559 448.179 584.591 449.549C584.655 450.919 584.687 452.225 584.687 453.468C584.687 457.195 584.353 460.333 583.685 462.882C583.048 465.43 582.078 467.358 580.774 468.664C579.502 469.97 577.895 470.623 575.955 470.623L571.803 467.183C573.076 465.685 574.014 463.646 574.619 461.066C575.223 458.454 575.525 455.236 575.525 451.413C575.525 449.661 575.462 447.829 575.334 445.917C575.207 444.006 575.032 442.015 574.81 439.944Z" fill="white"/>
<path d="M620.683 475.784V439.944H630.417V470.575L627.698 469.954L647.977 439.944H660.908V475.784H651.126V444.579L653.893 445.201L633.233 475.784H620.683Z" fill="white"/>
<path d="M705.111 439.944V470.241L701.58 466.991H711.314V483H702.01V473.921L704.729 475.784H667.607V439.944H677.484V470.241L674.287 466.991H698.717L695.234 470.241V439.944H705.111Z" fill="white"/>
<path d="M716.021 475.784V439.944H725.755V470.575L723.035 469.954L743.314 439.944H756.245V475.784H746.464V444.579L749.231 445.201L728.57 475.784H716.021Z" fill="white"/>
<path d="M762.944 439.944H772.821V475.784H762.944V439.944ZM791.096 439.944H801.021V475.784H791.096V439.944ZM768.479 453.181H795.2V461.974H768.479V453.181Z" fill="white"/>
<path d="M814.691 468.903V460.923H839.359V468.903H814.691ZM833.729 439.944L850 475.784H839.455L825.808 444.149H828.671L814.977 475.784H804.432L820.703 439.944H833.729Z" fill="white"/>
</g>
</g>
</svg>
