<svg width="1461" height="1702" viewBox="0 0 1461 1702" fill="none" xmlns="http://www.w3.org/2000/svg">
<path d="M208.775 1054.76C208.775 1082.35 197.814 1108.82 178.303 1128.33C158.792 1147.84 132.33 1158.8 104.737 1158.8C77.145 1158.8 50.6826 1147.84 31.1718 1128.33C11.661 1108.82 0.699951 1082.35 0.699951 1054.76V638.612C1.03111 611.237 12.1379 585.096 31.6127 565.856C51.0875 546.615 77.3609 535.825 104.737 535.825C132.114 535.825 158.387 546.615 177.862 565.856C197.337 585.096 208.444 611.237 208.775 638.612V1054.76ZM650.289 1597.15C650.289 1624.75 639.328 1651.21 619.817 1670.72C600.306 1690.23 573.844 1701.19 546.251 1701.19C518.659 1701.19 492.197 1690.23 472.686 1670.72C453.175 1651.21 442.214 1624.75 442.214 1597.15V1181C442.545 1153.63 453.652 1127.49 473.127 1108.25C492.602 1089.01 518.875 1078.22 546.251 1078.22C573.628 1078.22 599.901 1089.01 619.376 1108.25C638.851 1127.49 649.958 1153.63 650.289 1181V1597.15ZM1017.58 1597.15C1017.58 1624.75 1006.62 1651.21 987.111 1670.72C967.6 1690.23 941.138 1701.19 913.545 1701.19C885.953 1701.19 859.491 1690.23 839.98 1670.72C820.469 1651.21 809.508 1624.75 809.508 1597.15V1181C809.839 1153.63 820.946 1127.49 840.421 1108.25C859.896 1089.01 886.169 1078.22 913.545 1078.22C940.922 1078.22 967.195 1089.01 986.67 1108.25C1006.14 1127.49 1017.25 1153.63 1017.58 1181V1597.15ZM1461 1054.76C1461 1082.35 1450.04 1108.82 1430.53 1128.33C1411.02 1147.84 1384.55 1158.8 1356.96 1158.8C1329.37 1158.8 1302.91 1147.84 1283.4 1128.33C1263.89 1108.82 1252.93 1082.35 1252.93 1054.76V638.612C1253.26 611.237 1264.36 585.096 1283.84 565.856C1303.31 546.615 1329.59 535.825 1356.96 535.825C1384.34 535.825 1410.61 546.615 1430.09 565.856C1449.56 585.096 1460.67 611.237 1461 638.612V1054.76Z" fill="white"/>
<path d="M1190.76 533.333V1281.35C1190.76 1292.75 1188.52 1304.03 1184.16 1314.56C1179.8 1325.09 1173.4 1334.65 1165.35 1342.71C1157.29 1350.77 1147.72 1357.16 1137.19 1361.52C1126.66 1365.89 1115.38 1368.13 1103.98 1368.13H359.011C347.614 1368.13 336.328 1365.89 325.797 1361.53C315.267 1357.17 305.699 1350.78 297.639 1342.72C289.579 1334.66 283.185 1325.09 278.823 1314.56C274.461 1304.03 272.216 1292.75 272.216 1281.35V533.333H1190.76ZM731.512 101.944C482.042 101.944 279.234 268.12 273.175 474.962H1189.85C1183.76 268.105 980.952 101.944 731.512 101.944ZM534.186 342.812C505.792 342.812 482.742 319.777 482.742 291.384C483.069 277.956 488.632 265.189 498.244 255.808C507.856 246.427 520.755 241.176 534.186 241.176C547.617 241.176 560.516 246.427 570.128 255.808C579.74 265.189 585.303 277.956 585.63 291.384C585.622 305.023 580.199 318.102 570.552 327.746C560.906 337.389 547.826 342.808 534.186 342.812ZM929.067 342.812C922.311 342.81 915.622 341.478 909.381 338.891C903.141 336.303 897.47 332.512 892.695 327.734C887.919 322.956 884.132 317.283 881.548 311.041C878.965 304.799 877.636 298.109 877.638 291.353C877.64 284.597 878.973 277.908 881.56 271.668C884.147 265.427 887.938 259.757 892.716 254.981C897.495 250.206 903.167 246.418 909.409 243.834C915.652 241.251 922.342 239.922 929.097 239.924C942.741 239.928 955.824 245.352 965.469 255.003C975.114 264.653 980.53 277.74 980.526 291.384C980.522 305.027 975.098 318.111 965.448 327.756C955.797 337.4 942.711 342.816 929.067 342.812Z" fill="white"/>
<path d="M560.646 170.744C562.493 173.795 563.088 177.443 562.308 180.923C561.528 184.404 559.433 187.448 556.461 189.42C553.488 191.391 549.869 192.138 546.359 191.503C542.849 190.869 539.72 188.902 537.627 186.014L428.71 21.649C426.687 18.5924 425.961 14.8573 426.692 11.2655C427.423 7.67371 429.551 4.51938 432.607 2.49643C435.664 0.473482 439.399 -0.25237 442.991 0.478553C446.583 1.20948 449.737 3.3373 451.76 6.39393L560.646 170.744ZM902.165 170.744C900.14 173.798 899.412 177.532 900.14 181.124C900.868 184.716 902.993 187.871 906.047 189.896C909.102 191.921 912.836 192.65 916.428 191.922C920.02 191.194 923.175 189.069 925.2 186.014L1034.12 21.649C1036.14 18.5924 1036.87 14.8573 1036.13 11.2655C1035.4 7.67371 1033.28 4.51938 1030.22 2.49643C1027.16 0.473481 1023.43 -0.252371 1019.84 0.478553C1016.24 1.20948 1013.09 3.3373 1011.07 6.39393L902.165 170.744Z" fill="white"/>
</svg>
