<svg preserveAspectRatio="none" width="100%" height="100%" overflow="visible" style="display: block;" viewBox="0 0 3380 7976" fill="none" xmlns="http://www.w3.org/2000/svg">
<g id="&#209;&#132;&#208;&#190;&#208;&#189;">
<g id="Ellipse 2" filter="url(#filter0_f_818_14156)">
<ellipse cx="1690" cy="1770" rx="690" ry="770" fill="var(--fill-0, #95AB7D)" fill-opacity="0.4"/>
</g>
<g id="Ellipse 6" filter="url(#filter1_f_818_14156)">
<ellipse cx="1401" cy="6656.5" rx="485" ry="619.5" fill="var(--fill-0, #95AB7D)" fill-opacity="0.7"/>
</g>
<g id="Vector" opacity="0.05" filter="url(#filter2_f_818_14156)">
<path fill-rule="evenodd" clip-rule="evenodd" d="M2256.73 971.064C2332.41 970.65 2404.47 972.306 2417.43 974.376C2430.39 976.861 2456.83 980.173 2477.05 982.657C2497.26 984.727 2537.7 990.11 2567.76 994.665C2597.83 998.805 2631.53 1004.19 2642.93 1006.67C2654.34 1009.16 2675.59 1013.3 2689.59 1016.19C2704.1 1018.68 2726.91 1026.13 2740.39 1031.93C2758.53 1039.8 2767.86 1047.25 2775.12 1060.08C2780.82 1070.02 2785.49 1080.79 2785.49 1084.1C2785.49 1087.41 2788.6 1097.35 2792.75 1105.63C2796.89 1114.32 2802.08 1131.71 2805.19 1144.14C2808.3 1156.56 2814.52 1184.71 2818.67 1206.24C2823.33 1227.77 2829.03 1258.83 2831.63 1274.56C2834.22 1290.29 2839.4 1339.15 2842.51 1382.21C2847.7 1448.05 2847.18 1476.61 2840.44 1556.11C2835.77 1608.7 2827.48 1669.97 2821.78 1692.75C2816.07 1715.52 2808.82 1743.26 2805.71 1754.85C2802.6 1766.03 2795.34 1786.74 2789.64 1800.4C2784.45 1814.06 2771.49 1840.98 2761.13 1860.44C2750.76 1879.9 2733.65 1909.71 2723.28 1926.68C2712.91 1943.66 2697.88 1966.85 2689.59 1978.44C2681.29 1989.62 2662.63 2011.98 2648.63 2028.12C2634.64 2044.27 2603.53 2074.08 2580.21 2094.37C2556.88 2114.66 2496.23 2165.17 2444.91 2206.16C2394.1 2247.15 2329.82 2295.6 2301.83 2313.82C2273.84 2332.03 2237.55 2355.63 2221.48 2366.4C2205.41 2377.17 2158.23 2404.08 2116.76 2426.44C2075.29 2448.38 2013.6 2477.78 1979.39 2491.44C1945.18 2505.52 1898 2523.74 1874.16 2532.02C1850.83 2540.71 1830.61 2547.75 1829.06 2547.75C1827.5 2547.75 1818.69 2550.24 1809.87 2553.55C1800.54 2556.45 1771.51 2563.07 1746.11 2568.45C1720.71 2573.42 1690.13 2579.63 1678.72 2581.29C1667.32 2583.36 1632.58 2587.92 1600.96 2591.23C1569.34 2594.54 1527.35 2597.44 1507.65 2597.44C1487.95 2597.44 1445.96 2594.54 1414.34 2591.23C1382.72 2587.92 1347.99 2583.36 1336.58 2581.29C1325.18 2579.63 1296.15 2573.84 1271.78 2568.87C1247.42 2563.49 1212.69 2553.96 1194.02 2546.92C1175.36 2540.3 1140.63 2525.81 1116.27 2514.63C1091.9 2503.86 1062.87 2492.68 1051.47 2489.79C1032.29 2484.82 1028.14 2485.65 997.036 2497.24C978.373 2504.28 952.972 2516.28 940.012 2524.15C927.053 2532.02 894.394 2551.48 867.437 2567.63C840.481 2583.77 813.006 2600.75 806.785 2605.3C796.936 2612.34 788.123 2614 760.13 2614C728.508 2613.59 723.843 2612.76 713.475 2602.41C706.736 2596.2 698.96 2586.67 695.849 2580.88C692.739 2575.08 691.702 2565.97 693.257 2560.17C694.813 2554.38 707.772 2537.82 722.287 2522.91C736.802 2508 754.946 2488.54 762.204 2479.43C769.98 2470.33 791.752 2445.07 810.933 2423.54C829.595 2402.01 851.367 2375.92 872.103 2346.94L838.407 2301.39C820.264 2276.14 799.528 2247.57 792.789 2237.22C786.05 2226.87 770.498 2198.3 758.575 2173.04C746.652 2147.78 733.174 2117.97 729.027 2106.79C724.361 2095.2 718.14 2079.47 714.512 2071.6C710.883 2063.73 705.181 2041.37 702.07 2021.91C698.441 2002.45 693.776 1974.3 690.666 1958.56C688.074 1943.24 686 1906.39 686 1877C686 1847.6 688.592 1813.23 691.184 1801.23C694.294 1789.63 698.96 1769.35 702.07 1756.92C705.181 1744.5 713.475 1720.9 720.214 1705.17C726.953 1689.43 742.505 1656.72 754.946 1632.71C766.869 1608.7 783.976 1579.71 791.752 1568.53C800.046 1556.94 821.3 1530.03 838.926 1508.5C856.551 1486.97 888.691 1452.19 909.946 1431.9C931.2 1411.61 973.189 1376 1002.74 1353.23C1032.29 1330.46 1069.61 1303.54 1085.16 1294.02C1100.71 1284.08 1126.63 1267.94 1142.19 1257.58C1157.74 1247.23 1189.36 1229.01 1212.17 1216.59C1234.98 1204.17 1286.3 1179.33 1326.21 1160.7C1366.13 1142.48 1420.04 1118.88 1445.45 1108.94C1470.85 1099 1517.5 1082.86 1549.12 1072.51C1580.75 1062.57 1628.44 1048.49 1655.39 1041.45C1682.35 1034.41 1732.63 1022.82 1766.85 1015.37C1801.06 1008.33 1844.09 1000.05 1862.75 997.149C1881.41 994.25 1912.52 989.696 1932.73 987.212C1952.95 984.727 1986.65 981.829 2007.9 980.173C2029.16 978.931 2062.85 976.032 2083.07 974.376C2103.29 972.72 2181.04 971.064 2256.73 971.064V971.064ZM1948.29 1081.61C1925.48 1083.68 1898.52 1087.82 1888.67 1089.9C1878.82 1092.38 1857.57 1099.83 1842.02 1106.46C1826.46 1113.08 1792.25 1125.09 1766.85 1132.96C1741.45 1140.82 1698.94 1155.31 1673.54 1165.67C1648.14 1175.6 1603.55 1195.89 1575.04 1210.38C1546.53 1224.87 1508.17 1246.82 1489.51 1258.41C1470.85 1270.42 1438.19 1294.43 1416.42 1312.65C1394.64 1330.46 1365.61 1356.96 1351.62 1371.86C1337.62 1386.77 1313.25 1414.51 1297.18 1433.97C1281.63 1453.43 1257.79 1486.97 1244.31 1508.5C1231.35 1530.03 1215.8 1557.35 1210.61 1568.53C1204.91 1579.71 1191.95 1611.59 1182.1 1638.92C1171.73 1666.25 1158.77 1708.07 1152.55 1732.08C1146.33 1756.1 1139.08 1790.46 1135.96 1808.68C1132.85 1826.9 1129.74 1887.35 1128.19 1943.24C1127.15 1999.14 1127.15 2052.55 1128.71 2062.49C1131.3 2076.98 1133.37 2079.88 1142.7 2078.64C1149.96 2078.22 1156.7 2072.01 1162.92 2059.18C1168.11 2048.83 1181.06 2021.91 1191.43 1999.14C1201.8 1976.37 1220.98 1936.21 1233.94 1910.12C1246.9 1884.04 1269.19 1843.05 1283.19 1819.03C1297.18 1795.02 1322.07 1755.27 1337.62 1730.01C1353.69 1704.75 1374.94 1674.11 1385.31 1661.69C1395.68 1649.27 1416.93 1624.02 1432.49 1605.8C1447.52 1587.58 1474.47 1558.18 1491.58 1539.96C1509.21 1522.16 1548.61 1482.83 1579.19 1453.01C1610.29 1423.2 1667.32 1371.86 1706.2 1339.15C1745.08 1306.44 1806.25 1259.24 1842.02 1234.4C1877.78 1209.14 1944.66 1166.08 1990.28 1138.34C2036.41 1111.01 2078.4 1086.17 2083.59 1084.1C2088.77 1081.61 2091.36 1077.89 2089.29 1074.58C2087.22 1072.09 2080.48 1070.02 2074.26 1070.44C2067.52 1070.85 2046.26 1072.51 2026.04 1074.16C2005.83 1075.82 1971.1 1079.13 1948.29 1081.61V1081.61ZM2346.41 1082.03C2339.67 1082.03 2304.94 1094.45 2268.65 1109.36C2231.85 1124.26 2180.01 1147.03 2153.05 1159.87C2126.09 1172.7 2075.81 1200.86 2041.6 1222.8C2007.9 1244.33 1942.58 1291.12 1896.45 1326.73C1850.83 1362.34 1790.18 1410.78 1761.66 1434.38C1733.15 1457.98 1685.98 1499.8 1656.95 1527.13C1627.92 1554.46 1593.71 1588.41 1580.75 1602.9C1567.79 1616.98 1539.79 1649.69 1519.06 1674.94C1497.8 1700.61 1471.88 1733.74 1461 1748.64C1449.59 1763.55 1421.6 1807.02 1398.79 1845.94C1375.46 1884.86 1349.02 1931.24 1340.21 1949.46C1331.4 1967.67 1315.85 2001.21 1305.48 2023.98C1295.11 2046.76 1284.22 2069.11 1281.11 2073.67C1278 2078.22 1276.97 2084.43 1279.04 2087.33C1280.6 2089.82 1285.26 2092.3 1288.89 2092.3C1292 2092.3 1309.11 2081.54 1326.21 2068.29C1343.32 2055.45 1422.64 1995.41 1501.95 1934.96C1581.78 1874.51 1693.76 1789.63 1750.78 1746.57C1807.8 1703.51 1866.38 1658.79 1880.89 1647.2C1895.41 1636.02 1952.43 1592.13 2007.9 1549.9C2063.37 1507.67 2157.72 1435.62 2217.85 1389.66C2277.98 1344.12 2383.22 1262.14 2452.16 1207.9C2529.92 1146.21 2577.61 1105.63 2578.13 1100.66C2578.13 1094.04 2573.47 1091.55 2556.36 1089.07C2543.92 1087 2510.74 1083.68 2482.23 1082.03C2453.72 1079.96 2417.43 1077.06 2401.88 1075.82C2385.29 1074.16 2370.26 1074.99 2365.59 1077.47C2361.44 1079.96 2352.63 1082.03 2346.41 1082.03V1082.03ZM2591.09 1234.4C2579.69 1242.26 2523.7 1284.5 2466.68 1327.97C2409.66 1371.86 2303.38 1453.43 2230.81 1508.91C2158.75 1564.39 2079.44 1625.26 2054.56 1643.48C2030.19 1662.11 1968.5 1709.72 1917.18 1749.06C1865.86 1788.81 1765.29 1865.82 1694.27 1920.47C1623.25 1975.13 1532.02 2044.69 1492.1 2075.33C1452.18 2105.96 1414.86 2134.53 1409.16 2138.67C1399.83 2145.3 1399.83 2146.96 1406.57 2151.92C1413.3 2157.31 1418.49 2156.48 1445.45 2148.2C1462.55 2142.82 1504.54 2130.39 1538.76 2120.87C1572.97 2111.76 1639.32 2091.47 1686.5 2076.98C1733.67 2062.08 1800.03 2038.89 1834.24 2025.64C1868.45 2012.39 1912.52 1994.59 1932.73 1985.48C1952.95 1976.78 1983.02 1962.29 2000.13 1953.6C2017.23 1944.9 2053.52 1923.78 2080.48 1906.39C2107.43 1889.42 2163.42 1850.91 2204.89 1821.52C2246.36 1792.12 2309.09 1744.5 2344.34 1715.93C2379.59 1687.36 2431.43 1642.23 2458.38 1616.15C2485.86 1590.06 2519.04 1557.35 2532 1543.69C2544.44 1530.03 2566.73 1503.94 2581.24 1485.72C2595.76 1467.51 2621.68 1432.31 2637.75 1407.05C2654.34 1381.8 2677.15 1347.43 2688.03 1330.46C2705.14 1303.54 2707.73 1295.68 2707.73 1270.42C2707.73 1254.69 2705.14 1230.26 2702.03 1216.59C2698.92 1202.93 2694.77 1187.2 2693.22 1181.81C2691.14 1176.43 2687 1171.05 2683.88 1170.22C2680.77 1169.39 2663.15 1180.16 2645.01 1194.65C2626.86 1208.73 2602.5 1226.94 2591.09 1234.4V1234.4ZM1062.87 1441.42C1029.18 1468.33 988.223 1503.94 971.634 1520.92C955.564 1537.89 928.089 1569.77 910.982 1591.31C893.875 1612.84 871.585 1648.44 860.698 1669.97C850.33 1691.5 836.852 1722.56 831.15 1738.29C825.448 1754.03 817.153 1788.81 813.006 1814.89C808.859 1840.98 805.23 1875.34 805.23 1891.49C805.23 1907.64 808.859 1942.83 813.006 1970.16C816.635 1997.48 827.003 2038.48 835.815 2061.25C844.11 2084.02 857.07 2115.07 864.327 2130.81C871.585 2146.13 889.728 2176.77 904.243 2199.13C919.277 2221.07 939.494 2249.64 949.862 2262.06C964.377 2279.45 971.634 2284.83 981.484 2284.83C991.333 2284.83 997.036 2280.69 1004.81 2268.27C1014.14 2252.95 1015.18 2244.26 1014.14 2162.69C1013.62 2113.83 1010 2053.38 1006.88 2028.12C1003.26 1999.56 1002.22 1959.39 1004.29 1920.47C1006.37 1886.52 1009.48 1845.53 1012.07 1829.38C1014.66 1813.23 1021.4 1777.21 1027.62 1748.64C1033.84 1720.07 1045.25 1679.08 1052.5 1657.55C1059.76 1636.02 1074.79 1595.86 1086.2 1568.53C1097.6 1541.21 1116.78 1501.87 1128.71 1481.58C1140.63 1461.29 1156.7 1435.21 1164.99 1423.62C1173.29 1412.44 1193.51 1386.77 1210.61 1366.89C1227.2 1346.6 1239.12 1329.63 1237.05 1328.39C1234.46 1327.14 1230.83 1326.32 1227.72 1326.32C1225.13 1326.32 1200.25 1341.22 1173.29 1359.85C1146.33 1378.07 1096.57 1414.92 1062.87 1441.42V1441.42ZM2629.97 1597.52C2629.97 1598.76 2615.98 1614.08 2598.35 1631.88C2580.72 1649.27 2532.51 1693.16 2490.52 1729.18C2449.05 1765.2 2375.44 1824 2326.71 1860.02C2277.98 1896.04 2220.96 1937.03 2199.71 1951.11C2178.45 1965.19 2152.53 1981.75 2142.68 1987.96C2132.83 1994.59 2109.51 2008.25 2090.84 2018.6C2072.18 2028.95 2034.86 2047.58 2007.9 2060.01C1980.94 2072.43 1941.55 2089.4 1921.33 2097.68C1900.59 2105.96 1879.34 2114.66 1874.67 2116.73C1869.49 2118.8 1852.38 2124.6 1836.83 2129.57C1821.28 2134.53 1780.33 2148.2 1746.11 2159.38C1711.9 2170.56 1635.18 2193.74 1575.04 2211.13C1514.91 2228.52 1431.45 2251.71 1388.42 2262.47C1324.14 2278.21 1310.66 2282.76 1310.66 2289.39C1310.66 2296.84 1317.92 2297.67 1406.57 2302.22C1459.44 2304.71 1547.05 2307.19 1600.96 2307.19C1669.91 2307.61 1710.86 2305.54 1737.3 2301.39C1757.52 2298.08 1779.81 2293.53 1786.55 2291.46C1792.77 2289.39 1807.28 2285.66 1818.69 2283.59C1830.09 2281.11 1878.82 2269.1 1927.55 2256.68C1976.28 2244.26 2043.67 2225.21 2077.88 2214.86C2112.1 2204.09 2168.08 2183.81 2202.3 2170.56C2236.51 2156.89 2276.43 2140.74 2290.42 2134.53C2304.94 2128.32 2331.38 2115.9 2350.04 2106.79C2368.7 2097.68 2407.06 2075.74 2435.57 2057.52C2464.09 2039.3 2500.89 2013.22 2518 1999.56C2534.59 1985.48 2557.92 1963.95 2570.36 1951.53C2582.28 1939.1 2599.39 1917.16 2608.72 1902.67C2617.53 1888.59 2629.97 1866.23 2635.67 1852.98C2641.89 1840.15 2648.63 1827.73 2651.23 1825.24C2653.3 1822.76 2660.04 1809.09 2666.26 1794.19C2671.96 1779.28 2682.85 1749.47 2690.11 1727.94C2697.36 1706.41 2707.73 1665.42 2713.43 1636.85C2718.62 1608.28 2723.28 1566.05 2723.28 1542.45C2723.28 1511.39 2721.73 1500.22 2716.54 1500.22C2713.43 1500.22 2692.18 1521.75 2669.89 1547.83C2648.12 1573.92 2629.97 1596.27 2629.97 1597.52V1597.52ZM1969.02 2346.94C1932.22 2356.88 1879.34 2369.71 1852.38 2375.92C1825.43 2381.72 1793.8 2388.34 1782.4 2390.83C1771 2392.9 1745.59 2396.63 1725.38 2399.11C1701.53 2402.42 1641.92 2402.84 1549.12 2401.18C1472.4 2399.94 1368.2 2396.63 1318.44 2393.73C1233.42 2389.17 1225.65 2389.17 1194.54 2397.04C1176.4 2401.18 1159.81 2406.56 1157.22 2409.05C1154.63 2411.53 1154.11 2416.5 1156.18 2420.64C1158.77 2425.19 1180.03 2436.37 1204.39 2445.9C1228.76 2455.83 1271.78 2469.08 1300.3 2476.12C1328.81 2482.75 1363.02 2490.61 1377.02 2493.1C1391.01 2496 1442.33 2498.07 1496.25 2498.07C1548.09 2498.07 1604.59 2496 1621.7 2493.51C1638.81 2491.03 1667.84 2486.06 1686.5 2482.75C1705.16 2479.02 1737.82 2471.57 1759.07 2465.77C1780.33 2460.39 1823.35 2446.31 1854.98 2435.13C1886.6 2423.95 1919.77 2411.53 1929.62 2407.8C1938.95 2403.66 1978.87 2384.62 2017.75 2364.74C2056.63 2345.28 2088.25 2326.65 2088.25 2323.75C2088.25 2320.44 2084.62 2317.54 2080.48 2317.13C2076.33 2316.71 2064.41 2318.78 2054.56 2322.51C2044.71 2325.82 2005.83 2337 1969.02 2346.94Z" fill="var(--fill-0, #95AB7D)"/>
</g>
<path id="Vector_2" opacity="0.05" fill-rule="evenodd" clip-rule="evenodd" d="M2194.73 5451.06C2270.41 5450.65 2342.47 5452.31 2355.43 5454.38C2368.39 5456.86 2394.83 5460.17 2415.05 5462.66C2435.26 5464.73 2475.7 5470.11 2505.76 5474.66C2535.83 5478.8 2569.53 5484.19 2580.93 5486.67C2592.34 5489.16 2613.59 5493.3 2627.59 5496.19C2642.1 5498.68 2664.91 5506.13 2678.39 5511.93C2696.53 5519.8 2705.86 5527.25 2713.12 5540.08C2718.82 5550.02 2723.49 5560.79 2723.49 5564.1C2723.49 5567.41 2726.6 5577.35 2730.75 5585.63C2734.89 5594.32 2740.08 5611.71 2743.19 5624.14C2746.3 5636.56 2752.52 5664.71 2756.67 5686.24C2761.33 5707.77 2767.03 5738.83 2769.63 5754.56C2772.22 5770.29 2777.4 5819.15 2780.51 5862.21C2785.7 5928.05 2785.18 5956.61 2778.44 6036.11C2773.77 6088.7 2765.48 6149.97 2759.78 6172.75C2754.07 6195.52 2746.82 6223.26 2743.71 6234.85C2740.6 6246.03 2733.34 6266.74 2727.64 6280.4C2722.45 6294.06 2709.49 6320.98 2699.13 6340.44C2688.76 6359.9 2671.65 6389.71 2661.28 6406.68C2650.91 6423.66 2635.88 6446.85 2627.59 6458.44C2619.29 6469.62 2600.63 6491.98 2586.63 6508.12C2572.64 6524.27 2541.53 6554.08 2518.21 6574.37C2494.88 6594.66 2434.23 6645.17 2382.91 6686.16C2332.1 6727.15 2267.82 6775.6 2239.83 6793.82C2211.84 6812.03 2175.55 6835.63 2159.48 6846.4C2143.41 6857.17 2096.23 6884.08 2054.76 6906.44C2013.29 6928.38 1951.6 6957.78 1917.39 6971.44C1883.18 6985.52 1836 7003.74 1812.16 7012.02C1788.83 7020.71 1768.61 7027.75 1767.06 7027.75C1765.5 7027.75 1756.69 7030.24 1747.87 7033.55C1738.54 7036.45 1709.51 7043.07 1684.11 7048.45C1658.71 7053.42 1628.13 7059.63 1616.72 7061.29C1605.32 7063.36 1570.58 7067.92 1538.96 7071.23C1507.34 7074.54 1465.35 7077.44 1445.65 7077.44C1425.95 7077.44 1383.96 7074.54 1352.34 7071.23C1320.72 7067.92 1285.99 7063.36 1274.58 7061.29C1263.18 7059.63 1234.15 7053.84 1209.78 7048.87C1185.42 7043.49 1150.69 7033.96 1132.02 7026.92C1113.36 7020.3 1078.63 7005.81 1054.27 6994.63C1029.9 6983.86 1000.87 6972.68 989.467 6969.79C970.286 6964.82 966.139 6965.65 935.036 6977.24C916.373 6984.28 890.972 6996.28 878.012 7004.15C865.053 7012.02 832.394 7031.48 805.437 7047.63C778.481 7063.77 751.006 7080.75 744.785 7085.3C734.936 7092.34 726.123 7094 698.13 7094C666.508 7093.59 661.843 7092.76 651.475 7082.41C644.736 7076.2 636.96 7066.67 633.849 7060.88C630.739 7055.08 629.702 7045.97 631.257 7040.17C632.813 7034.38 645.772 7017.82 660.287 7002.91C674.802 6988 692.946 6968.54 700.204 6959.43C707.98 6950.33 729.752 6925.07 748.933 6903.54C767.595 6882.01 789.367 6855.92 810.103 6826.94L776.407 6781.39C758.264 6756.14 737.528 6727.57 730.789 6717.22C724.05 6706.87 708.498 6678.3 696.575 6653.04C684.652 6627.78 671.174 6597.97 667.027 6586.79C662.361 6575.2 656.14 6559.47 652.512 6551.6C648.883 6543.73 643.181 6521.37 640.07 6501.91C636.441 6482.45 631.776 6454.3 628.666 6438.56C626.074 6423.24 624 6386.39 624 6357C624 6327.6 626.592 6293.23 629.184 6281.23C632.294 6269.63 636.96 6249.35 640.07 6236.92C643.181 6224.5 651.475 6200.9 658.214 6185.17C664.953 6169.43 680.505 6136.72 692.946 6112.71C704.869 6088.7 721.976 6059.71 729.752 6048.53C738.046 6036.94 759.3 6010.03 776.926 5988.5C794.551 5966.97 826.691 5932.19 847.946 5911.9C869.2 5891.61 911.189 5856 940.738 5833.23C970.286 5810.46 1007.61 5783.54 1023.16 5774.02C1038.71 5764.08 1064.63 5747.94 1080.19 5737.58C1095.74 5727.23 1127.36 5709.01 1150.17 5696.59C1172.98 5684.17 1224.3 5659.33 1264.21 5640.7C1304.13 5622.48 1358.04 5598.88 1383.45 5588.94C1408.85 5579 1455.5 5562.86 1487.12 5552.51C1518.75 5542.57 1566.44 5528.49 1593.39 5521.45C1620.35 5514.41 1670.63 5502.82 1704.85 5495.37C1739.06 5488.33 1782.09 5480.05 1800.75 5477.15C1819.41 5474.25 1850.52 5469.7 1870.73 5467.21C1890.95 5464.73 1924.65 5461.83 1945.9 5460.17C1967.16 5458.93 2000.85 5456.03 2021.07 5454.38C2041.29 5452.72 2119.04 5451.06 2194.73 5451.06V5451.06ZM1886.29 5561.61C1863.48 5563.68 1836.52 5567.82 1826.67 5569.9C1816.82 5572.38 1795.57 5579.83 1780.02 5586.46C1764.46 5593.08 1730.25 5605.09 1704.85 5612.96C1679.45 5620.82 1636.94 5635.31 1611.54 5645.67C1586.14 5655.6 1541.55 5675.89 1513.04 5690.38C1484.53 5704.87 1446.17 5726.82 1427.51 5738.41C1408.85 5750.42 1376.19 5774.43 1354.42 5792.65C1332.64 5810.46 1303.61 5836.96 1289.62 5851.86C1275.62 5866.77 1251.25 5894.51 1235.18 5913.97C1219.63 5933.43 1195.79 5966.97 1182.31 5988.5C1169.35 6010.03 1153.8 6037.35 1148.61 6048.53C1142.91 6059.71 1129.95 6091.59 1120.1 6118.92C1109.73 6146.25 1096.77 6188.07 1090.55 6212.08C1084.33 6236.1 1077.08 6270.46 1073.96 6288.68C1070.85 6306.9 1067.74 6367.35 1066.19 6423.24C1065.15 6479.14 1065.15 6532.55 1066.71 6542.49C1069.3 6556.98 1071.37 6559.88 1080.7 6558.64C1087.96 6558.22 1094.7 6552.01 1100.92 6539.18C1106.11 6528.83 1119.06 6501.91 1129.43 6479.14C1139.8 6456.37 1158.98 6416.21 1171.94 6390.12C1184.9 6364.04 1207.19 6323.05 1221.19 6299.03C1235.18 6275.02 1260.07 6235.27 1275.62 6210.01C1291.69 6184.75 1312.94 6154.11 1323.31 6141.69C1333.68 6129.27 1354.93 6104.02 1370.49 6085.8C1385.52 6067.58 1412.47 6038.18 1429.58 6019.96C1447.21 6002.16 1486.61 5962.83 1517.19 5933.01C1548.29 5903.2 1605.32 5851.86 1644.2 5819.15C1683.08 5786.44 1744.25 5739.24 1780.02 5714.4C1815.78 5689.14 1882.66 5646.08 1928.28 5618.34C1974.41 5591.01 2016.4 5566.17 2021.59 5564.1C2026.77 5561.61 2029.36 5557.89 2027.29 5554.58C2025.22 5552.09 2018.48 5550.02 2012.26 5550.44C2005.52 5550.85 1984.26 5552.51 1964.04 5554.16C1943.83 5555.82 1909.1 5559.13 1886.29 5561.61V5561.61ZM2284.41 5562.03C2277.67 5562.03 2242.94 5574.45 2206.65 5589.36C2169.85 5604.26 2118.01 5627.03 2091.05 5639.87C2064.09 5652.7 2013.81 5680.86 1979.6 5702.8C1945.9 5724.33 1880.58 5771.12 1834.45 5806.73C1788.83 5842.34 1728.18 5890.78 1699.66 5914.38C1671.15 5937.98 1623.98 5979.8 1594.95 6007.13C1565.92 6034.46 1531.71 6068.41 1518.75 6082.9C1505.79 6096.98 1477.79 6129.69 1457.06 6154.94C1435.8 6180.61 1409.88 6213.74 1399 6228.64C1387.59 6243.55 1359.6 6287.02 1336.79 6325.94C1313.46 6364.86 1287.02 6411.24 1278.21 6429.46C1269.4 6447.67 1253.85 6481.21 1243.48 6503.98C1233.11 6526.76 1222.22 6549.11 1219.11 6553.67C1216 6558.22 1214.97 6564.43 1217.04 6567.33C1218.6 6569.82 1223.26 6572.3 1226.89 6572.3C1230 6572.3 1247.11 6561.54 1264.21 6548.29C1281.32 6535.45 1360.64 6475.41 1439.95 6414.96C1519.78 6354.51 1631.76 6269.63 1688.78 6226.57C1745.8 6183.51 1804.38 6138.79 1818.89 6127.2C1833.41 6116.02 1890.43 6072.13 1945.9 6029.9C2001.37 5987.67 2095.72 5915.62 2155.85 5869.66C2215.98 5824.12 2321.22 5742.14 2390.16 5687.9C2467.92 5626.21 2515.61 5585.63 2516.13 5580.66C2516.13 5574.04 2511.47 5571.55 2494.36 5569.07C2481.92 5567 2448.74 5563.68 2420.23 5562.03C2391.72 5559.96 2355.43 5557.06 2339.88 5555.82C2323.29 5554.16 2308.26 5554.99 2303.59 5557.47C2299.44 5559.96 2290.63 5562.03 2284.41 5562.03V5562.03ZM2529.09 5714.4C2517.69 5722.26 2461.7 5764.5 2404.68 5807.97C2347.66 5851.86 2241.38 5933.43 2168.81 5988.91C2096.75 6044.39 2017.44 6105.26 1992.56 6123.48C1968.19 6142.11 1906.5 6189.72 1855.18 6229.06C1803.86 6268.81 1703.29 6345.82 1632.27 6400.47C1561.25 6455.13 1470.02 6524.69 1430.1 6555.33C1390.18 6585.96 1352.86 6614.53 1347.16 6618.67C1337.83 6625.3 1337.83 6626.96 1344.57 6631.92C1351.3 6637.31 1356.49 6636.48 1383.45 6628.2C1400.55 6622.82 1442.54 6610.39 1476.76 6600.87C1510.97 6591.76 1577.32 6571.47 1624.5 6556.98C1671.67 6542.08 1738.03 6518.89 1772.24 6505.64C1806.45 6492.39 1850.52 6474.59 1870.73 6465.48C1890.95 6456.78 1921.02 6442.29 1938.13 6433.6C1955.23 6424.9 1991.52 6403.78 2018.48 6386.39C2045.43 6369.42 2101.42 6330.91 2142.89 6301.52C2184.36 6272.12 2247.09 6224.5 2282.34 6195.93C2317.59 6167.36 2369.43 6122.23 2396.38 6096.15C2423.86 6070.06 2457.04 6037.35 2470 6023.69C2482.44 6010.03 2504.73 5983.94 2519.24 5965.72C2533.76 5947.51 2559.68 5912.31 2575.75 5887.05C2592.34 5861.8 2615.15 5827.43 2626.03 5810.46C2643.14 5783.54 2645.73 5775.68 2645.73 5750.42C2645.73 5734.69 2643.14 5710.26 2640.03 5696.59C2636.92 5682.93 2632.77 5667.2 2631.22 5661.81C2629.14 5656.43 2625 5651.05 2621.88 5650.22C2618.77 5649.39 2601.15 5660.16 2583.01 5674.65C2564.86 5688.73 2540.5 5706.94 2529.09 5714.4V5714.4ZM1000.87 5921.42C967.176 5948.33 926.223 5983.94 909.634 6000.92C893.564 6017.89 866.089 6049.77 848.982 6071.31C831.875 6092.84 809.585 6128.44 798.698 6149.97C788.33 6171.5 774.852 6202.56 769.15 6218.29C763.448 6234.03 755.153 6268.81 751.006 6294.89C746.859 6320.98 743.23 6355.34 743.23 6371.49C743.23 6387.64 746.859 6422.83 751.006 6450.16C754.635 6477.48 765.003 6518.48 773.815 6541.25C782.11 6564.02 795.07 6595.07 802.327 6610.81C809.585 6626.13 827.728 6656.77 842.243 6679.13C857.277 6701.07 877.494 6729.64 887.862 6742.06C902.377 6759.45 909.634 6764.83 919.484 6764.83C929.333 6764.83 935.036 6760.69 942.811 6748.27C952.142 6732.95 953.179 6724.26 952.142 6642.69C951.624 6593.83 947.995 6533.38 944.885 6508.12C941.256 6479.56 940.219 6439.39 942.293 6400.47C944.367 6366.52 947.477 6325.53 950.069 6309.38C952.661 6293.23 959.4 6257.21 965.621 6228.64C971.841 6200.07 983.246 6159.08 990.503 6137.55C997.761 6116.02 1012.79 6075.86 1024.2 6048.53C1035.6 6021.21 1054.78 5981.87 1066.71 5961.58C1078.63 5941.29 1094.7 5915.21 1102.99 5903.62C1111.29 5892.44 1131.51 5866.77 1148.61 5846.89C1165.2 5826.6 1177.12 5809.63 1175.05 5808.39C1172.46 5807.14 1168.83 5806.32 1165.72 5806.32C1163.13 5806.32 1138.25 5821.22 1111.29 5839.85C1084.33 5858.07 1034.57 5894.92 1000.87 5921.42V5921.42ZM2567.97 6077.52C2567.97 6078.76 2553.98 6094.08 2536.35 6111.88C2518.72 6129.27 2470.51 6173.16 2428.52 6209.18C2387.05 6245.2 2313.44 6304 2264.71 6340.02C2215.98 6376.04 2158.96 6417.03 2137.71 6431.11C2116.45 6445.19 2090.53 6461.75 2080.68 6467.96C2070.83 6474.59 2047.51 6488.25 2028.84 6498.6C2010.18 6508.95 1972.86 6527.58 1945.9 6540.01C1918.94 6552.43 1879.55 6569.4 1859.33 6577.68C1838.59 6585.96 1817.34 6594.66 1812.67 6596.73C1807.49 6598.8 1790.38 6604.6 1774.83 6609.57C1759.28 6614.53 1718.33 6628.2 1684.11 6639.38C1649.9 6650.56 1573.18 6673.74 1513.04 6691.13C1452.91 6708.52 1369.45 6731.71 1326.42 6742.47C1262.14 6758.21 1248.66 6762.76 1248.66 6769.39C1248.66 6776.84 1255.92 6777.67 1344.57 6782.22C1397.44 6784.71 1485.05 6787.19 1538.96 6787.19C1607.91 6787.61 1648.86 6785.54 1675.3 6781.39C1695.52 6778.08 1717.81 6773.53 1724.55 6771.46C1730.77 6769.39 1745.28 6765.66 1756.69 6763.59C1768.09 6761.11 1816.82 6749.1 1865.55 6736.68C1914.28 6724.26 1981.67 6705.21 2015.88 6694.86C2050.1 6684.09 2106.08 6663.81 2140.3 6650.56C2174.51 6636.89 2214.43 6620.74 2228.42 6614.53C2242.94 6608.32 2269.38 6595.9 2288.04 6586.79C2306.7 6577.68 2345.06 6555.74 2373.57 6537.52C2402.09 6519.3 2438.89 6493.22 2456 6479.56C2472.59 6465.48 2495.92 6443.95 2508.36 6431.53C2520.28 6419.1 2537.39 6397.16 2546.72 6382.67C2555.53 6368.59 2567.97 6346.23 2573.67 6332.98C2579.89 6320.15 2586.63 6307.73 2589.23 6305.24C2591.3 6302.76 2598.04 6289.09 2604.26 6274.19C2609.96 6259.28 2620.85 6229.47 2628.11 6207.94C2635.36 6186.41 2645.73 6145.42 2651.43 6116.85C2656.62 6088.28 2661.28 6046.05 2661.28 6022.45C2661.28 5991.39 2659.73 5980.22 2654.54 5980.22C2651.43 5980.22 2630.18 6001.75 2607.89 6027.83C2586.12 6053.92 2567.97 6076.27 2567.97 6077.52V6077.52ZM1907.02 6826.94C1870.22 6836.88 1817.34 6849.71 1790.38 6855.92C1763.43 6861.72 1731.8 6868.34 1720.4 6870.83C1709 6872.9 1683.59 6876.63 1663.38 6879.11C1639.53 6882.42 1579.92 6882.84 1487.12 6881.18C1410.4 6879.94 1306.2 6876.63 1256.44 6873.73C1171.42 6869.17 1163.65 6869.17 1132.54 6877.04C1114.4 6881.18 1097.81 6886.56 1095.22 6889.05C1092.63 6891.53 1092.11 6896.5 1094.18 6900.64C1096.77 6905.19 1118.03 6916.37 1142.39 6925.9C1166.76 6935.83 1209.78 6949.08 1238.3 6956.12C1266.81 6962.75 1301.02 6970.61 1315.02 6973.1C1329.01 6976 1380.33 6978.07 1434.25 6978.07C1486.09 6978.07 1542.59 6976 1559.7 6973.51C1576.81 6971.03 1605.84 6966.06 1624.5 6962.75C1643.16 6959.02 1675.82 6951.57 1697.07 6945.77C1718.33 6940.39 1761.35 6926.31 1792.98 6915.13C1824.6 6903.95 1857.77 6891.53 1867.62 6887.8C1876.95 6883.66 1916.87 6864.62 1955.75 6844.74C1994.63 6825.28 2026.25 6806.65 2026.25 6803.75C2026.25 6800.44 2022.62 6797.54 2018.48 6797.13C2014.33 6796.71 2002.41 6798.78 1992.56 6802.51C1982.71 6805.82 1943.83 6817 1907.02 6826.94Z" fill="var(--fill-0, #8B8B8B)"/>
</g>
<defs>
<filter id="filter0_f_818_14156" x="0" y="0" width="3380" height="3540" filterUnits="userSpaceOnUse" color-interpolation-filters="sRGB">
<feFlood flood-opacity="0" result="BackgroundImageFix"/>
<feBlend mode="normal" in="SourceGraphic" in2="BackgroundImageFix" result="shape"/>
<feGaussianBlur stdDeviation="500" result="effect1_foregroundBlur_818_14156"/>
</filter>
<filter id="filter1_f_818_14156" x="216" y="5337" width="2370" height="2639" filterUnits="userSpaceOnUse" color-interpolation-filters="sRGB">
<feFlood flood-opacity="0" result="BackgroundImageFix"/>
<feBlend mode="normal" in="SourceGraphic" in2="BackgroundImageFix" result="shape"/>
<feGaussianBlur stdDeviation="350" result="effect1_foregroundBlur_818_14156"/>
</filter>
<filter id="filter2_f_818_14156" x="656" y="941" width="2220" height="1703" filterUnits="userSpaceOnUse" color-interpolation-filters="sRGB">
<feFlood flood-opacity="0" result="BackgroundImageFix"/>
<feBlend mode="normal" in="SourceGraphic" in2="BackgroundImageFix" result="shape"/>
<feGaussianBlur stdDeviation="15" result="effect1_foregroundBlur_818_14156"/>
</filter>
</defs>
</svg>
