<svg width="1310" height="1703" viewBox="0 0 1310 1703" fill="none" xmlns="http://www.w3.org/2000/svg">
<g opacity="0.05" filter="url(#filter0_f_817_7452)">
<path fill-rule="evenodd" clip-rule="evenodd" d="M1118.73 30.0639C1194.41 29.6498 1266.47 31.306 1279.43 33.3762C1292.39 35.8605 1318.83 39.1729 1339.05 41.6572C1359.26 43.7274 1399.7 49.11 1429.76 53.6645C1459.83 57.805 1493.53 63.1876 1504.93 65.6719C1516.34 68.1561 1537.59 72.2966 1551.59 75.1949C1566.1 77.6792 1588.91 85.132 1602.39 90.9287C1620.53 98.7956 1629.86 106.248 1637.12 119.084C1642.82 129.021 1647.49 139.786 1647.49 143.099C1647.49 146.411 1650.6 156.348 1654.75 164.629C1658.89 173.324 1664.08 190.714 1667.19 203.135C1670.3 215.557 1676.52 243.712 1680.67 265.242C1685.33 286.773 1691.03 317.826 1693.63 333.56C1696.22 349.294 1701.4 398.151 1704.51 441.212C1709.7 507.045 1709.18 535.615 1702.44 615.111C1697.77 667.695 1689.48 728.974 1683.78 751.747C1678.07 774.519 1670.82 802.26 1667.71 813.854C1664.6 825.033 1657.34 845.735 1651.64 859.399C1646.45 873.062 1633.49 899.975 1623.13 919.436C1612.76 938.896 1595.65 968.707 1585.28 985.683C1574.91 1002.66 1559.88 1025.85 1551.59 1037.44C1543.29 1048.62 1524.63 1070.98 1510.63 1087.12C1496.64 1103.27 1465.53 1133.08 1442.21 1153.37C1418.88 1173.66 1358.23 1224.17 1306.91 1265.16C1256.1 1306.15 1191.82 1354.6 1163.83 1372.82C1135.84 1391.03 1099.55 1414.63 1083.48 1425.4C1067.41 1436.17 1020.23 1463.08 978.763 1485.44C937.292 1507.38 875.603 1536.78 841.389 1550.44C807.175 1564.52 760.002 1582.74 736.156 1591.02C712.828 1599.71 692.611 1606.75 691.056 1606.75C689.5 1606.75 680.688 1609.24 671.875 1612.55C662.544 1615.45 633.514 1622.07 608.113 1627.45C582.711 1632.42 552.126 1638.63 540.722 1640.29C529.317 1642.36 494.585 1646.92 462.963 1650.23C431.341 1653.54 389.351 1656.44 369.652 1656.44C349.953 1656.44 307.963 1653.54 276.341 1650.23C244.72 1646.92 209.987 1642.36 198.583 1640.29C187.178 1638.63 158.148 1632.84 133.784 1627.87C109.419 1622.49 74.6868 1612.96 56.0247 1605.92C37.3625 1599.3 2.63025 1584.81 -21.7342 1573.63C-46.0987 1562.86 -75.1286 1551.68 -86.5333 1548.79C-105.714 1543.82 -109.861 1544.65 -140.964 1556.24C-159.627 1563.28 -185.028 1575.28 -197.988 1583.15C-210.947 1591.02 -243.606 1610.48 -270.563 1626.63C-297.519 1642.77 -324.994 1659.75 -331.215 1664.3C-341.064 1671.34 -349.877 1673 -377.87 1673C-409.492 1672.59 -414.157 1671.76 -424.525 1661.41C-431.264 1655.2 -439.04 1645.67 -442.151 1639.88C-445.261 1634.08 -446.298 1624.97 -444.743 1619.17C-443.187 1613.38 -430.228 1596.82 -415.713 1581.91C-401.198 1567 -383.054 1547.54 -375.796 1538.43C-368.02 1529.33 -346.248 1504.07 -327.067 1482.54C-308.405 1461.01 -286.633 1434.92 -265.897 1405.94L-299.593 1360.39C-317.736 1335.14 -338.472 1306.57 -345.211 1296.22C-351.95 1285.87 -367.502 1257.3 -379.425 1232.04C-391.348 1206.78 -404.826 1176.97 -408.973 1165.79C-413.639 1154.2 -419.86 1138.47 -423.488 1130.6C-427.117 1122.73 -432.819 1100.37 -435.93 1080.91C-439.559 1061.45 -444.224 1033.3 -447.334 1017.56C-449.926 1002.24 -452 965.395 -452 935.997C-452 906.6 -449.408 872.234 -446.816 860.227C-443.706 848.634 -439.04 828.345 -435.93 815.924C-432.819 803.503 -424.525 779.902 -417.786 764.168C-411.047 748.434 -395.495 715.725 -383.054 691.71C-371.131 667.695 -354.024 638.712 -346.248 627.533C-337.954 615.94 -316.7 589.026 -299.074 567.496C-281.449 545.966 -249.309 511.186 -228.054 490.898C-206.8 470.609 -164.811 435.001 -135.262 412.229C-105.714 389.456 -68.3895 362.543 -52.8378 353.02C-37.286 343.083 -11.3664 326.935 4.18542 316.584C19.7372 306.233 51.3591 288.015 74.1684 275.593C96.9777 263.172 148.299 238.329 188.215 219.697C228.131 201.479 282.044 177.878 307.445 167.941C332.846 158.004 379.502 141.856 411.124 131.505C442.745 121.568 490.438 107.491 517.394 100.452C544.35 93.413 594.635 81.8197 628.848 74.3668C663.062 67.328 706.089 59.0471 724.751 56.1488C743.413 53.2505 774.517 48.696 794.734 46.2117C814.951 43.7274 848.647 40.8291 869.901 39.1729C891.155 37.9308 924.85 35.0324 945.068 33.3762C965.285 31.7201 1043.04 30.0639 1118.73 30.0639ZM810.286 140.614C787.477 142.684 760.52 146.825 750.671 148.895C740.821 151.379 719.567 158.832 704.015 165.457C688.464 172.082 654.25 184.089 628.848 191.956C603.447 199.823 560.939 214.315 535.538 224.666C510.137 234.603 465.555 254.891 437.043 269.383C408.532 283.874 370.171 305.819 351.508 317.412C332.846 329.419 300.188 353.434 278.415 371.652C256.643 389.456 227.613 415.955 213.616 430.861C199.619 445.766 175.255 473.508 159.185 492.968C143.633 512.428 119.787 545.966 106.309 567.496C93.3489 589.026 77.7971 616.354 72.6132 627.533C66.9109 638.712 53.9511 670.594 44.1016 697.921C33.7338 725.248 20.774 767.066 14.5533 791.081C8.33255 815.096 1.07507 849.462 -2.03528 867.68C-5.14563 885.898 -8.25598 946.349 -9.81116 1002.24C-10.848 1058.14 -10.848 1111.55 -9.29279 1121.49C-6.70084 1135.98 -4.62726 1138.88 4.7038 1137.64C11.9613 1137.22 18.7004 1131.01 24.9211 1118.18C30.105 1107.83 43.0648 1080.91 53.4327 1058.14C63.8005 1035.37 82.9811 995.206 95.9409 969.121C108.901 943.036 131.192 902.046 145.188 878.031C159.185 854.016 184.068 814.268 199.619 789.011C215.69 763.754 236.944 733.115 247.311 720.693C257.679 708.272 278.933 683.015 294.485 664.797C309.519 646.579 336.475 617.182 353.582 598.964C371.207 581.16 410.605 541.825 441.19 512.014C472.294 482.203 529.317 430.861 568.196 398.151C607.076 365.441 668.246 318.24 704.015 293.397C739.784 268.141 806.657 225.08 852.276 197.339C898.412 170.012 940.402 145.169 945.586 143.099C950.77 140.614 953.362 136.888 951.289 133.575C949.215 131.091 942.476 129.021 936.255 129.435C929.516 129.849 908.262 131.505 888.045 133.161C867.827 134.818 833.095 138.13 810.286 140.614ZM1208.41 141.028C1201.67 141.028 1166.94 153.45 1130.65 168.355C1093.85 183.261 1042.01 206.034 1015.05 218.869C988.094 231.704 937.81 259.86 903.596 281.804C869.901 303.334 804.583 350.122 758.447 385.73C712.828 421.338 652.176 469.781 623.664 493.382C595.153 516.982 547.979 558.801 518.949 586.128C489.919 613.455 455.705 647.407 442.745 661.899C429.786 675.976 401.792 708.686 381.057 733.943C359.803 759.614 333.883 792.737 322.997 807.643C311.592 822.549 283.599 866.024 260.79 904.944C237.462 943.864 211.024 990.237 202.211 1008.46C193.399 1026.67 177.847 1060.21 167.479 1082.98C157.111 1105.76 146.225 1128.11 143.115 1132.67C140.004 1137.22 138.967 1143.43 141.041 1146.33C142.596 1148.82 147.262 1151.3 150.891 1151.3C154.001 1151.3 171.108 1140.54 188.215 1127.29C205.322 1114.45 284.636 1054.41 363.95 993.964C443.782 933.513 555.755 848.634 612.778 805.573C669.801 762.512 728.38 717.795 742.895 706.202C757.41 695.022 814.433 651.133 869.901 608.901C925.369 566.668 1019.72 494.624 1079.85 448.665C1139.98 403.12 1245.22 321.138 1314.16 266.898C1391.92 205.206 1439.61 164.629 1440.13 159.66C1440.13 153.036 1435.47 150.551 1418.36 148.067C1405.92 145.997 1372.74 142.684 1344.23 141.028C1315.72 138.958 1279.43 136.06 1263.88 134.818C1247.29 133.161 1232.26 133.99 1227.59 136.474C1223.44 138.958 1214.63 141.028 1208.41 141.028ZM1453.09 293.397C1441.69 301.264 1385.7 343.497 1328.68 386.972C1271.66 430.861 1165.38 512.428 1092.81 567.91C1020.75 623.392 941.439 684.257 916.556 702.475C892.192 721.107 830.503 768.723 779.182 808.057C727.861 847.805 627.293 924.818 556.273 979.472C485.254 1034.13 394.017 1103.69 354.1 1134.33C314.184 1164.96 276.86 1193.53 271.158 1197.67C261.826 1204.3 261.826 1205.96 268.566 1210.92C275.305 1216.31 280.489 1215.48 307.445 1207.2C324.552 1201.82 366.542 1189.39 400.756 1179.87C434.97 1170.76 501.324 1150.47 548.498 1135.98C595.671 1121.08 662.026 1097.89 696.239 1084.64C730.453 1071.39 774.517 1053.59 794.734 1044.48C814.951 1035.78 845.018 1021.29 862.125 1012.6C879.232 1003.9 915.519 982.785 942.476 965.395C969.432 948.419 1025.42 909.912 1066.89 880.515C1108.36 851.118 1171.09 803.503 1206.34 774.933C1241.59 746.364 1293.43 701.233 1320.38 675.148C1347.86 649.063 1381.04 616.354 1394 602.69C1406.44 589.026 1428.73 562.942 1443.24 544.724C1457.76 526.505 1483.68 491.312 1499.75 466.055C1516.34 440.798 1539.15 406.432 1550.03 389.456C1567.14 362.543 1569.73 354.676 1569.73 329.419C1569.73 313.686 1567.14 289.257 1564.03 275.593C1560.92 261.93 1556.77 246.196 1555.22 240.813C1553.14 235.431 1549 230.048 1545.88 229.22C1542.77 228.392 1525.15 239.157 1507.01 253.649C1488.86 267.727 1464.5 285.945 1453.09 293.397ZM-75.1287 500.421C-108.824 527.334 -149.777 562.942 -166.366 579.917C-182.436 596.893 -209.911 628.775 -227.018 650.305C-244.125 671.836 -266.415 707.444 -277.302 728.974C-287.67 750.505 -301.148 781.558 -306.85 797.292C-312.552 813.026 -320.847 847.805 -324.994 873.89C-329.141 899.975 -332.77 934.341 -332.77 950.489C-332.77 966.637 -329.141 1001.83 -324.994 1029.16C-321.365 1056.48 -310.997 1097.48 -302.185 1120.25C-293.89 1143.02 -280.93 1174.07 -273.673 1189.81C-266.415 1205.13 -248.272 1235.77 -233.757 1258.13C-218.723 1280.07 -198.506 1308.64 -188.138 1321.06C-173.623 1338.45 -166.366 1343.83 -156.516 1343.83C-146.667 1343.83 -140.964 1339.69 -133.189 1327.27C-123.858 1311.95 -122.821 1303.26 -123.858 1221.69C-124.376 1172.83 -128.005 1112.38 -131.115 1087.12C-134.744 1058.56 -135.781 1018.39 -133.707 979.472C-131.633 945.52 -128.523 904.53 -125.931 888.382C-123.339 872.234 -116.6 836.212 -110.379 807.643C-104.159 779.074 -92.754 738.083 -85.4965 716.553C-78.239 695.022 -63.2056 654.86 -51.801 627.533C-40.3964 600.206 -21.2158 560.871 -9.29279 540.583C2.63025 520.295 18.7004 494.21 26.9947 482.617C35.289 471.437 55.5063 445.766 72.6132 425.892C89.2018 405.604 101.125 388.628 99.0513 387.386C96.4593 386.144 92.8305 385.316 89.7202 385.316C87.1282 385.316 62.2454 400.221 35.289 418.853C8.33255 437.071 -41.4331 473.922 -75.1287 500.421ZM1491.97 656.516C1491.97 657.758 1477.98 673.078 1460.35 690.882C1442.72 708.272 1394.51 752.161 1352.52 788.183C1311.05 824.205 1237.44 882.999 1188.71 919.021C1139.98 955.043 1082.96 996.034 1061.71 1010.11C1040.45 1024.19 1014.53 1040.75 1004.68 1046.96C994.833 1053.59 971.506 1067.25 952.844 1077.6C934.182 1087.95 896.857 1106.58 869.901 1119.01C842.944 1131.43 803.547 1148.4 783.329 1156.68C762.594 1164.96 741.34 1173.66 736.674 1175.73C731.49 1177.8 714.383 1183.6 698.831 1188.57C683.28 1193.53 642.327 1207.2 608.113 1218.38C573.899 1229.56 497.177 1252.74 437.043 1270.13C376.91 1287.52 293.448 1310.71 250.422 1321.47C186.141 1337.21 172.663 1341.76 172.663 1348.39C172.663 1355.84 179.92 1356.67 268.566 1361.22C321.442 1363.71 409.05 1366.19 462.963 1366.19C531.909 1366.61 572.862 1364.54 599.3 1360.39C619.517 1357.08 641.808 1352.53 648.547 1350.46C654.768 1348.39 669.283 1344.66 680.688 1342.59C692.092 1340.11 740.821 1328.1 789.55 1315.68C838.279 1303.26 905.67 1284.21 939.884 1273.86C974.098 1263.09 1030.08 1242.81 1064.3 1229.56C1098.51 1215.89 1138.43 1199.74 1152.42 1193.53C1166.94 1187.32 1193.38 1174.9 1212.04 1165.79C1230.7 1156.68 1269.06 1134.74 1297.57 1116.52C1326.09 1098.3 1362.89 1072.22 1380 1058.56C1396.59 1044.48 1419.92 1022.95 1432.36 1010.53C1444.28 998.104 1461.39 976.16 1470.72 961.668C1479.53 947.591 1491.97 925.232 1497.67 911.983C1503.9 899.147 1510.63 886.726 1513.23 884.242C1515.3 881.757 1522.04 868.094 1528.26 853.188C1533.96 838.282 1544.85 808.471 1552.11 786.941C1559.36 765.41 1569.73 724.42 1575.43 695.85C1580.62 667.281 1585.28 625.049 1585.28 601.448C1585.28 570.394 1583.73 559.215 1578.54 559.215C1575.43 559.215 1554.18 580.746 1531.89 606.831C1510.12 632.915 1491.97 655.274 1491.97 656.516ZM831.021 1405.94C794.216 1415.88 741.34 1428.71 714.383 1434.92C687.427 1440.72 655.805 1447.34 644.4 1449.83C632.995 1451.9 607.594 1455.63 587.377 1458.11C563.531 1461.42 503.916 1461.84 411.124 1460.18C334.401 1458.94 230.205 1455.63 180.439 1452.73C95.4225 1448.17 87.6466 1448.17 56.5431 1456.04C38.3993 1460.18 21.8108 1465.56 19.2188 1468.05C16.6268 1470.53 16.1084 1475.5 18.182 1479.64C20.774 1484.19 42.0281 1495.37 66.3925 1504.9C90.757 1514.83 133.784 1528.08 162.295 1535.12C190.807 1541.75 225.021 1549.61 239.017 1552.1C253.014 1555 304.335 1557.07 358.247 1557.07C410.087 1557.07 466.592 1555 483.698 1552.51C500.805 1550.03 529.835 1545.06 548.498 1541.75C567.16 1538.02 599.818 1530.57 621.073 1524.77C642.327 1519.39 685.353 1505.31 716.975 1494.13C748.597 1482.95 781.774 1470.53 791.624 1466.8C800.955 1462.66 840.871 1443.62 879.75 1423.74C918.63 1404.28 950.252 1385.65 950.252 1382.75C950.252 1379.44 946.623 1376.54 942.476 1376.13C938.329 1375.71 926.406 1377.78 916.556 1381.51C906.707 1384.82 867.827 1396 831.021 1405.94Z" fill="#95AB7D"/>
</g>
<defs>
<filter id="filter0_f_817_7452" x="-482" y="0" width="2220" height="1703" filterUnits="userSpaceOnUse" color-interpolation-filters="sRGB">
<feFlood flood-opacity="0" result="BackgroundImageFix"/>
<feBlend mode="normal" in="SourceGraphic" in2="BackgroundImageFix" result="shape"/>
<feGaussianBlur stdDeviation="15" result="effect1_foregroundBlur_817_7452"/>
</filter>
</defs>
</svg>
