<svg width="1310" height="1643" viewBox="0 0 1310 1643" fill="none" xmlns="http://www.w3.org/2000/svg">
<path opacity="0.05" fill-rule="evenodd" clip-rule="evenodd" d="M1056.73 0.0648479C1132.41 -0.349199 1204.47 1.30699 1217.43 3.37722C1230.39 5.8615 1256.83 9.17387 1277.05 11.6581C1297.26 13.7284 1337.7 19.111 1367.76 23.6655C1397.83 27.806 1431.53 33.1886 1442.93 35.6728C1454.34 38.1571 1475.59 42.2976 1489.59 45.1959C1504.1 47.6802 1526.91 55.133 1540.39 60.9297C1558.53 68.7965 1567.86 76.2494 1575.12 89.0848C1580.82 99.0219 1585.49 109.787 1585.49 113.1C1585.49 116.412 1588.6 126.349 1592.75 134.63C1596.89 143.325 1602.08 160.715 1605.19 173.136C1608.3 185.558 1614.52 213.713 1618.67 235.243C1623.33 256.774 1629.03 287.827 1631.63 303.561C1634.22 319.295 1639.4 368.152 1642.51 411.213C1647.7 477.046 1647.18 505.615 1640.44 585.112C1635.77 637.696 1627.48 698.975 1621.78 721.748C1616.07 744.52 1608.82 772.261 1605.71 783.855C1602.6 795.034 1595.34 815.736 1589.64 829.4C1584.45 843.063 1571.49 869.976 1561.13 889.437C1550.76 908.897 1533.65 938.708 1523.28 955.684C1512.91 972.66 1497.88 995.846 1489.59 1007.44C1481.29 1018.62 1462.63 1040.98 1448.63 1057.13C1434.64 1073.27 1403.53 1103.08 1380.21 1123.37C1356.88 1143.66 1296.23 1194.17 1244.91 1235.17C1194.1 1276.16 1129.82 1324.6 1101.83 1342.82C1073.84 1361.04 1037.55 1384.64 1021.48 1395.4C1005.41 1406.17 958.235 1433.08 916.763 1455.44C875.292 1477.38 813.603 1506.78 779.389 1520.44C745.175 1534.52 698.002 1552.74 674.156 1561.02C650.828 1569.71 630.611 1576.75 629.056 1576.75C627.5 1576.75 618.688 1579.24 609.875 1582.55C600.544 1585.45 571.514 1592.07 546.113 1597.46C520.711 1602.42 490.126 1608.64 478.722 1610.29C467.317 1612.36 432.585 1616.92 400.963 1620.23C369.341 1623.54 327.351 1626.44 307.652 1626.44C287.953 1626.44 245.963 1623.54 214.341 1620.23C182.72 1616.92 147.987 1612.36 136.583 1610.29C125.178 1608.64 96.148 1602.84 71.7836 1597.87C47.4191 1592.49 12.6868 1582.96 -5.97534 1575.93C-24.6375 1569.3 -59.3698 1554.81 -83.7342 1543.63C-108.099 1532.86 -137.129 1521.69 -148.533 1518.79C-167.714 1513.82 -171.861 1514.65 -202.964 1526.24C-221.627 1533.28 -247.028 1545.29 -259.988 1553.15C-272.947 1561.02 -305.606 1580.48 -332.563 1596.63C-359.519 1612.78 -386.994 1629.75 -393.215 1634.31C-403.064 1641.34 -411.877 1643 -439.87 1643C-471.492 1642.59 -476.157 1641.76 -486.525 1631.41C-493.264 1625.2 -501.04 1615.67 -504.151 1609.88C-507.261 1604.08 -508.298 1594.97 -506.743 1589.17C-505.187 1583.38 -492.228 1566.82 -477.713 1551.91C-463.198 1537.01 -445.054 1517.54 -437.796 1508.44C-430.02 1499.33 -408.248 1474.07 -389.067 1452.54C-370.405 1431.01 -348.633 1404.92 -327.897 1375.94L-361.593 1330.4C-379.736 1305.14 -400.472 1276.57 -407.211 1266.22C-413.95 1255.87 -429.502 1227.3 -441.425 1202.04C-453.348 1176.78 -466.826 1146.97 -470.973 1135.79C-475.639 1124.2 -481.86 1108.47 -485.488 1100.6C-489.117 1092.73 -494.819 1070.37 -497.93 1050.91C-501.559 1031.45 -506.224 1003.3 -509.334 987.565C-511.926 972.246 -514 935.396 -514 905.998C-514 876.601 -511.408 842.235 -508.816 830.228C-505.706 818.635 -501.04 798.346 -497.93 785.925C-494.819 773.503 -486.525 749.903 -479.786 734.169C-473.047 718.435 -457.495 685.726 -445.054 661.711C-433.131 637.696 -416.024 608.713 -408.248 597.534C-399.954 585.94 -378.7 559.027 -361.074 537.497C-343.449 515.967 -311.309 481.187 -290.054 460.898C-268.8 440.61 -226.811 405.002 -197.262 382.23C-167.714 359.457 -130.39 332.544 -114.838 323.021C-99.286 313.084 -73.3664 296.936 -57.8146 286.585C-42.2628 276.234 -10.6409 258.016 12.1684 245.594C34.9777 233.173 86.2985 208.33 126.215 189.698C166.131 171.48 220.044 147.879 245.445 137.942C270.846 128.005 317.502 111.857 349.124 101.506C380.745 91.5691 428.438 77.4915 455.394 70.4527C482.35 63.4139 532.635 51.8206 566.848 44.3678C601.062 37.329 644.089 29.0481 662.751 26.1498C681.413 23.2514 712.517 18.6969 732.734 16.2127C752.951 13.7284 786.647 10.8301 807.901 9.17387C829.155 7.93173 862.85 5.0334 883.068 3.37722C903.285 1.72103 981.044 0.0648479 1056.73 0.0648479ZM748.286 110.615C725.477 112.685 698.52 116.826 688.671 118.896C678.821 121.38 657.567 128.833 642.015 135.458C626.464 142.083 592.25 154.09 566.848 161.957C541.447 169.824 498.939 184.315 473.538 194.667C448.137 204.604 403.555 224.892 375.043 239.384C346.532 253.875 308.171 275.82 289.508 287.413C270.846 299.42 238.188 323.435 216.415 341.653C194.643 359.457 165.613 385.956 151.616 400.862C137.619 415.767 113.255 443.509 97.1848 462.969C81.633 482.429 57.7869 515.967 44.3087 537.497C31.3489 559.027 15.7971 586.355 10.6132 597.534C4.91089 608.713 -8.04892 640.595 -17.8984 667.922C-28.2662 695.249 -41.226 737.067 -47.4467 761.082C-53.6674 785.097 -60.9249 819.463 -64.0353 837.681C-67.1456 855.899 -70.256 916.349 -71.8112 972.246C-72.848 1028.14 -72.848 1081.55 -71.2928 1091.49C-68.7008 1105.98 -66.6273 1108.88 -57.2962 1107.64C-50.0387 1107.22 -43.2996 1101.01 -37.0789 1088.18C-31.895 1077.83 -18.9352 1050.91 -8.56729 1028.14C1.80054 1005.37 20.9811 965.207 33.9409 939.122C46.9007 913.037 69.1916 872.047 83.1882 848.032C97.1848 824.017 122.068 784.269 137.619 759.012C153.69 733.755 174.944 703.116 185.311 690.694C195.679 678.273 216.933 653.016 232.485 634.798C247.519 616.58 274.475 587.183 291.582 568.965C309.207 551.161 348.605 511.826 379.19 482.015C410.294 452.204 467.317 400.862 506.196 368.152C545.076 335.442 606.246 288.241 642.015 263.398C677.784 238.142 744.657 195.081 790.276 167.34C836.412 140.013 878.402 115.17 883.586 113.1C888.77 110.615 891.362 106.889 889.289 103.576C887.215 101.092 880.476 99.0219 874.255 99.436C867.516 99.85 846.262 101.506 826.045 103.162C805.827 104.819 771.095 108.131 748.286 110.615ZM1146.41 111.029C1139.67 111.029 1104.94 123.451 1068.65 138.356C1031.85 153.262 980.007 176.035 953.051 188.87C926.094 201.705 875.81 229.861 841.596 251.805C807.901 273.335 742.583 320.123 696.447 355.731C650.828 391.339 590.176 439.782 561.664 463.383C533.153 486.983 485.979 528.802 456.949 556.129C427.919 583.456 393.705 617.408 380.745 631.9C367.786 645.977 339.792 678.687 319.057 703.944C297.803 729.615 271.883 762.738 260.997 777.644C249.592 792.55 221.599 836.025 198.79 874.945C175.462 913.865 149.024 960.238 140.211 978.456C131.399 996.674 115.847 1030.21 105.479 1052.98C95.1112 1075.76 84.225 1098.12 81.1146 1102.67C78.0043 1107.22 76.9675 1113.44 79.041 1116.33C80.5963 1118.82 85.2618 1121.3 88.8905 1121.3C92.0009 1121.3 109.108 1110.54 126.215 1097.29C143.322 1084.45 222.636 1024.42 301.95 963.965C381.782 903.514 493.755 818.635 550.778 775.574C607.801 732.513 666.38 687.796 680.895 676.203C695.41 665.023 752.433 621.134 807.901 578.902C863.369 536.669 957.716 464.625 1017.85 418.666C1077.98 373.121 1183.22 291.139 1252.16 236.899C1329.92 175.206 1377.61 134.63 1378.13 129.661C1378.13 123.037 1373.47 120.552 1356.36 118.068C1343.92 115.998 1310.74 112.685 1282.23 111.029C1253.72 108.959 1217.43 106.061 1201.88 104.819C1185.29 103.162 1170.26 103.99 1165.59 106.475C1161.44 108.959 1152.63 111.029 1146.41 111.029ZM1391.09 263.398C1379.69 271.265 1323.7 313.498 1266.68 356.973C1209.66 400.862 1103.38 482.429 1030.81 537.911C958.753 593.393 879.439 654.258 854.556 672.476C830.192 691.108 768.503 738.724 717.182 778.058C665.861 817.806 565.293 894.819 494.273 949.473C423.254 1004.13 332.017 1073.69 292.1 1104.33C252.184 1134.97 214.86 1163.54 209.158 1167.68C199.826 1174.3 199.826 1175.96 206.566 1180.93C213.305 1186.31 218.489 1185.48 245.445 1177.2C262.552 1171.82 304.542 1159.39 338.756 1149.87C372.97 1140.76 439.324 1120.47 486.498 1105.98C533.671 1091.08 600.026 1067.89 634.239 1054.64C668.453 1041.39 712.517 1023.59 732.734 1014.48C752.951 1005.78 783.018 991.292 800.125 982.597C817.232 973.902 853.519 952.786 880.476 935.396C907.432 918.42 963.419 879.913 1004.89 850.516C1046.36 821.119 1109.09 773.503 1144.34 744.934C1179.59 716.365 1231.43 671.234 1258.38 645.149C1285.86 619.064 1319.04 586.355 1332 572.691C1344.44 559.027 1366.73 532.943 1381.24 514.724C1395.76 496.506 1421.68 461.313 1437.75 436.056C1454.34 410.799 1477.15 376.433 1488.03 359.457C1505.14 332.544 1507.73 324.677 1507.73 299.42C1507.73 283.687 1505.14 259.258 1502.03 245.594C1498.92 231.931 1494.77 216.197 1493.22 210.814C1491.14 205.432 1487 200.049 1483.88 199.221C1480.77 198.393 1463.15 209.158 1445.01 223.65C1426.86 237.727 1402.5 255.946 1391.09 263.398ZM-137.129 470.422C-170.824 497.335 -211.777 532.943 -228.366 549.918C-244.436 566.894 -271.911 598.776 -289.018 620.306C-306.125 641.837 -328.415 677.445 -339.302 698.975C-349.67 720.506 -363.148 751.559 -368.85 767.293C-374.552 783.027 -382.847 817.806 -386.994 843.891C-391.141 869.976 -394.77 904.342 -394.77 920.49C-394.77 936.638 -391.141 971.832 -386.994 999.159C-383.365 1026.49 -372.997 1067.48 -364.185 1090.25C-355.89 1113.02 -342.93 1144.07 -335.673 1159.81C-328.415 1175.13 -310.272 1205.77 -295.757 1228.13C-280.723 1250.07 -260.506 1278.64 -250.138 1291.06C-235.623 1308.45 -228.366 1313.83 -218.516 1313.83C-208.667 1313.83 -202.964 1309.69 -195.189 1297.27C-185.858 1281.95 -184.821 1273.26 -185.858 1191.69C-186.376 1142.83 -190.005 1082.38 -193.115 1057.13C-196.744 1028.56 -197.781 988.394 -195.707 949.473C-193.633 915.521 -190.523 874.531 -187.931 858.383C-185.339 842.235 -178.6 806.213 -172.379 777.644C-166.159 749.075 -154.754 708.084 -147.497 686.554C-140.239 665.023 -125.206 624.861 -113.801 597.534C-102.396 570.207 -83.2158 530.872 -71.2928 510.584C-59.3698 490.296 -43.2996 464.211 -35.0053 452.618C-26.711 441.438 -6.49374 415.767 10.6132 395.893C27.2018 375.605 39.1248 358.629 37.0513 357.387C34.4593 356.145 30.8305 355.317 27.7202 355.317C25.1282 355.317 0.245361 370.222 -26.711 388.854C-53.6674 407.072 -103.433 443.923 -137.129 470.422ZM1429.97 626.517C1429.97 627.759 1415.98 643.079 1398.35 660.883C1380.72 678.273 1332.51 722.162 1290.52 758.184C1249.05 794.206 1175.44 853 1126.71 889.022C1077.98 925.044 1020.96 966.035 999.706 980.113C978.452 994.19 952.532 1010.75 942.683 1016.96C932.833 1023.59 909.506 1037.25 890.844 1047.6C872.182 1057.95 834.857 1076.59 807.901 1089.01C780.944 1101.43 741.547 1118.4 721.329 1126.69C700.594 1134.97 679.34 1143.66 674.674 1145.73C669.49 1147.8 652.383 1153.6 636.831 1158.57C621.28 1163.54 580.327 1177.2 546.113 1188.38C511.899 1199.56 435.177 1222.74 375.043 1240.13C314.91 1257.52 231.448 1280.71 188.422 1291.48C124.141 1307.21 110.663 1311.76 110.663 1318.39C110.663 1325.84 117.92 1326.67 206.566 1331.22C259.442 1333.71 347.05 1336.19 400.963 1336.19C469.909 1336.61 510.862 1334.54 537.3 1330.4C557.517 1327.08 579.808 1322.53 586.547 1320.46C592.768 1318.39 607.283 1314.66 618.688 1312.59C630.092 1310.11 678.821 1298.1 727.55 1285.68C776.279 1273.26 843.67 1254.21 877.884 1243.86C912.098 1233.09 968.084 1212.81 1002.3 1199.56C1036.51 1185.89 1076.43 1169.75 1090.42 1163.54C1104.94 1157.32 1131.38 1144.9 1150.04 1135.79C1168.7 1126.69 1207.06 1104.74 1235.57 1086.52C1264.09 1068.3 1300.89 1042.22 1318 1028.56C1334.59 1014.48 1357.92 992.948 1370.36 980.527C1382.28 968.105 1399.39 946.161 1408.72 931.669C1417.53 917.592 1429.97 895.233 1435.67 881.984C1441.9 869.148 1448.63 856.727 1451.23 854.243C1453.3 851.758 1460.04 838.095 1466.26 823.189C1471.96 808.283 1482.85 778.472 1490.11 756.942C1497.36 735.411 1507.73 694.421 1513.43 665.851C1518.62 637.282 1523.28 595.049 1523.28 571.449C1523.28 540.395 1521.73 529.216 1516.54 529.216C1513.43 529.216 1492.18 550.747 1469.89 576.831C1448.12 602.916 1429.97 625.275 1429.97 626.517ZM769.021 1375.94C732.216 1385.88 679.34 1398.71 652.383 1404.92C625.427 1410.72 593.805 1417.35 582.4 1419.83C570.995 1421.9 545.594 1425.63 525.377 1428.11C501.531 1431.42 441.916 1431.84 349.124 1430.18C272.401 1428.94 168.205 1425.63 118.439 1422.73C33.4225 1418.17 25.6466 1418.17 -5.45694 1426.04C-23.6007 1430.18 -40.1892 1435.56 -42.7812 1438.05C-45.3732 1440.53 -45.8916 1445.5 -43.818 1449.64C-41.226 1454.2 -19.9719 1465.38 4.39252 1474.9C28.757 1484.84 71.7836 1498.08 100.295 1505.12C128.807 1511.75 163.021 1519.61 177.017 1522.1C191.014 1525 242.335 1527.07 296.247 1527.07C348.087 1527.07 404.592 1525 421.698 1522.51C438.805 1520.03 467.835 1515.06 486.498 1511.75C505.16 1508.02 537.818 1500.57 559.073 1494.77C580.327 1489.39 623.353 1475.31 654.975 1464.13C686.597 1452.95 719.774 1440.53 729.624 1436.81C738.955 1432.67 778.871 1413.62 817.75 1393.74C856.63 1374.28 888.252 1355.65 888.252 1352.75C888.252 1349.44 884.623 1346.54 880.476 1346.13C876.329 1345.72 864.406 1347.79 854.556 1351.51C844.707 1354.82 805.827 1366 769.021 1375.94Z" fill="#8B8B8B"/>
</svg>
